<svg id="图层_1" data-name="图层 1" xmlns="http://www.w3.org/2000/svg" viewBox="0 0 343.16 180.46"><defs><style>.cls-1,.cls-2{fill:#1f77ad;}.cls-1{fill-rule:evenodd;}</style></defs><title>530028c207095</title><path class="cls-1" d="M216,139.51h41.2v-91H216ZM222.16,84a16.65,16.65,0,0,1,10.32-7.17,23.88,23.88,0,0,1,4.6-.42,18.15,18.15,0,0,1,14.49,8c3.72,6.42,3.34,13.15-.3,19.5-3.63,5.2-7.84,7.13-14,7.41-6.9,0-12.28-2.27-15.75-8.44C218.51,96.47,218.6,90.25,222.16,84Z" transform="translate(-90.15 -48.52)"/><path class="cls-1" d="M171.08,139.51l41.21,0v-91H171.08ZM177,76.82l9.41,0,0,15.24,11.52-15.24h9.86L195.44,93.5l13,17.48-10.68,0L186.37,95.78V111H177Z" transform="translate(-90.15 -48.52)"/><path class="cls-1" d="M305.9,48.52v91h40.9l0-91Zm31,41.68,0,7.37h-14v5.67l16.48,0v7.64l-25.82,0V77.14l25.82,0v7.65l-16.45,0,0,5.46Z" transform="translate(-90.15 -48.52)"/><path class="cls-1" d="M260.88,139.51h41.31v-91H260.89Zm10.67-62.44L288,93.89,288,77h8.62v33.86l-4.22.07L275.07,94.44l0,16.47h-8.58l0-33.81Z" transform="translate(-90.15 -48.52)"/><path class="cls-1" d="M235.06,103.39a10.67,10.67,0,0,0,4.59,0c2.88-1.28,4-2.92,4.95-5.85a14.36,14.36,0,0,0-.14-7.1c-1.7-4.29-4.08-6.06-8.77-6-3.85.72-5.6,2.48-7,6.07a12.68,12.68,0,0,0,.07,7.09A9.11,9.11,0,0,0,235.06,103.39Z" transform="translate(-90.15 -48.52)"/><path class="cls-2" d="M199.71,172.48a.23.23,0,0,1,.21.06.36.36,0,0,0,.24.08l.38,0a1.87,1.87,0,0,1,.56.18l1,.49a1.61,1.61,0,0,0,.32.34.25.25,0,0,1,.13.21v.41l-.14.08-.14.22a11.08,11.08,0,0,1-1.41.87,5.9,5.9,0,0,0-1.3.87l-.62.9-.39.28a9.26,9.26,0,0,1-.63.94,3.29,3.29,0,0,0-.45.8q-.21.5-.83,1.88l.06.08a11.44,11.44,0,0,0,1.16-.18,4.85,4.85,0,0,1,1.25-.06,10.26,10.26,0,0,1,1.65.22,10.77,10.77,0,0,1,1.57.46,4.8,4.8,0,0,1,1.11.56l1,.73a4.93,4.93,0,0,0,.55.6,1.55,1.55,0,0,1,.36.74,4.09,4.09,0,0,1,.15,1.08,2.37,2.37,0,0,1-.11.81,2.23,2.23,0,0,0-.14.57.93.93,0,0,1-.21.5,1.29,1.29,0,0,0-.25.57,2.73,2.73,0,0,1-.43.9,4.53,4.53,0,0,1-.56.73.65.65,0,0,0-.22.36.45.45,0,0,1-.14.28.61.61,0,0,0-.17.24.68.68,0,0,1-.21.27,6.36,6.36,0,0,0-.52.52l-.69.42a4,4,0,0,1-1.18.5,6.79,6.79,0,0,1-1.13.14,2,2,0,0,1-1-.17,1.29,1.29,0,0,0-.63-.18,1.13,1.13,0,0,1-.53-.11l-.66-.32a2.73,2.73,0,0,1-.77-.64l-.31-.34.06-.08a2.65,2.65,0,0,0-.27-.42.48.48,0,0,1-.11-.29.56.56,0,0,0-.1-.29.44.44,0,0,1-.07-.31,3.46,3.46,0,0,0,0-.57q0-.38-.1-.7a3.66,3.66,0,0,1-.06-.64,1.08,1.08,0,0,1,.17-.59,2.51,2.51,0,0,1,.34-.43l.48-.48q.5-.42.76-.59a2.76,2.76,0,0,1,.55-.28,1.52,1.52,0,0,1,.73-.06q.43.06.8.14a1.62,1.62,0,0,1,.55.21l.49.32a4.65,4.65,0,0,0,.67.66,1.68,1.68,0,0,1,.46.56,1.35,1.35,0,0,1,.21.59.33.33,0,0,1-.13.29,3.19,3.19,0,0,0-.43.42l-.34-.06a4,4,0,0,0-.69,0,2.74,2.74,0,0,1-.94-.1,3.8,3.8,0,0,0-.84-.15,1.34,1.34,0,0,0-.63.07.34.34,0,0,1-.36,0,.62.62,0,0,0-.41-.1.74.74,0,0,1-.29,0l-.15-.08-.06-.2.06-.08a.94.94,0,0,0,.45-.14l.14-.17q.56-.28.81-.38a.93.93,0,0,0,.36-.22,2.64,2.64,0,0,1,.28-.27,1.11,1.11,0,0,0-.21-.21,1.74,1.74,0,0,0-.64-.18,1,1,0,0,0-.67,0l-.35.22a4.92,4.92,0,0,1-.41.6,1,1,0,0,0-.18.57,2,2,0,0,0,.14.84,4.82,4.82,0,0,0,.28.64l.34.59.43.27a4.28,4.28,0,0,0,.7.25,2.47,2.47,0,0,0,1.2,0,7.35,7.35,0,0,0,1.16-.32,2.37,2.37,0,0,0,.7-.38,6.79,6.79,0,0,1,.59-.45q.39-.5.62-.74a4.23,4.23,0,0,0,.56-.9,6.08,6.08,0,0,0,.48-1.19,3,3,0,0,0,.13-.84,1.16,1.16,0,0,0-.11-.49q-.1-.18-.29-.66l-.77-.7a2.89,2.89,0,0,0-1.11-.49,5.88,5.88,0,0,0-1.76-.17,4.69,4.69,0,0,0-1.55.28q-.57.24-1.47.55a2,2,0,0,0,0,.21,5.4,5.4,0,0,1-.32.74,4.3,4.3,0,0,0-.39,1.19,2.29,2.29,0,0,1-.32.91,1.86,1.86,0,0,0-.29.69,1.73,1.73,0,0,1-.22.6,2,2,0,0,0-.24.66,6.62,6.62,0,0,1-.21.81,1.19,1.19,0,0,1-.32.57,1.46,1.46,0,0,0-.31.32.62.62,0,0,0-.13.35.24.24,0,0,1-.14.24,1.61,1.61,0,0,0-.42.46l-.43.2a.63.63,0,0,1-.35.07.55.55,0,0,1-.34-.14l-.45-.41c-.11-.34-.2-.59-.27-.77a2.06,2.06,0,0,0-.39-.6q-.29-.34-.57-.71t-.57-.84a1.58,1.58,0,0,1-.29-.83,1.84,1.84,0,0,1,.62-1q.62-.66,1.29-1.33t1-.8a6.93,6.93,0,0,1,.83-.49q.49-.25,1.55-.92a29.51,29.51,0,0,1,1.29-2.93,23.15,23.15,0,0,1,1.25-2.39,1.21,1.21,0,0,0,.27-.64,6.07,6.07,0,0,1-.56.43,2.87,2.87,0,0,1-.53.25,1.77,1.77,0,0,0-.6.38,2.7,2.7,0,0,1-.66.45,4.71,4.71,0,0,0-1,.76,5,5,0,0,1-1.72,1,6.22,6.22,0,0,0-1.44.66c-.21.17-.37.24-.46.21a.29.29,0,0,0-.24,0,2.07,2.07,0,0,1-.41.14q-.06-.25-.15-.56t-.14-.5a1.87,1.87,0,0,1,0-.39,3.2,3.2,0,0,0,0-.41.92.92,0,0,0-.11-.35l.11-.2L189,178q.34-.56.49-.84a1.47,1.47,0,0,1,.45-.49,6.43,6.43,0,0,0,.85-.83l.73-.46a.74.74,0,0,1,.41-.15h.28l.32-.07-.13.62a.7.7,0,0,0,0,.39,1,1,0,0,1,.06.41q0,.21,0,.66l1.4-.69a17.34,17.34,0,0,0,1.61-1,17.24,17.24,0,0,1,1.64-1q.56-.28,1.46-.78a4.77,4.77,0,0,1,.84-1.29A1,1,0,0,0,199.71,172.48ZM192.33,185q-.52.41-.94.67l-1.43.88-.32.34a.32.32,0,0,0-.1.2v.31l.66.5a2.76,2.76,0,0,0,.55.29,1.14,1.14,0,0,0,.49.11l.49,0q.25-.39.36-.59a3.07,3.07,0,0,0,.24-.69c.08-.33.18-.64.28-1s.27-.83.49-1.55A4.3,4.3,0,0,0,192.33,185Z" transform="translate(-90.15 -48.52)"/><path class="cls-2" d="M227.14,172.88a.74.74,0,0,0,.29.06,6.09,6.09,0,0,1,.67.1,1.33,1.33,0,0,0,.17.39,3.34,3.34,0,0,1,.24.41q.15.29.53,1.15t.55,1.2l.53,1.13,1.51-.84.25-.2.14.06.36-.31.06-.2.14,0,.11-.1a1.14,1.14,0,0,1,.32-.1,2.38,2.38,0,0,1,.87.07,2.29,2.29,0,0,1,.77.25,1.08,1.08,0,0,0,.39.18,1.36,1.36,0,0,1,.22.56l-.64.42-.25.25-.34.25q-.45.5-.84,1l-1.23.87-.56.78a5.08,5.08,0,0,0,1,2,3.21,3.21,0,0,1,.73.5l.08.22-.28.2a1.42,1.42,0,0,0,.27.36,1.11,1.11,0,0,1,.24.34q.11.22.36.78l.14,0q.28-1.26.41-1.76a4.37,4.37,0,0,0,.13-1.06,1.41,1.41,0,0,0-.18-.81,2.22,2.22,0,0,1-.25-.42.76.76,0,0,0-.2-.28,1.06,1.06,0,0,1-.18-.2,1.54,1.54,0,0,0,.45.2q.22.06.92.29t1.29.49a.78.78,0,0,0,.25.25.26.26,0,0,1,.14.2.21.21,0,0,1,0,.2.69.69,0,0,0-.11.28l-.17.06q-.08.28-.13.39c0,.07-.09.36-.18.85a7.19,7.19,0,0,1-.34,1.25q-.2.5-.64,1.71a18.2,18.2,0,0,0,3.08,3.86l1,.84.11,0q0-.7.08-1.12a10.37,10.37,0,0,0-.06-1.75,14.08,14.08,0,0,0-.25-1.9q-.14-.57-.36-1.61.22.34.36.59a21.49,21.49,0,0,1,.73,2.28,18.82,18.82,0,0,0,.8,2.42,1.79,1.79,0,0,1,.22.78,1.81,1.81,0,0,0,.2.76,2.86,2.86,0,0,1,.25.71,5.57,5.57,0,0,0,.18.69q.11.34.07.39a.46.46,0,0,0-.07.17,1.11,1.11,0,0,1-.24.11.4.4,0,0,1-.21,0,1.44,1.44,0,0,0-.34,0,3.24,3.24,0,0,1-.59-.07,2.25,2.25,0,0,1-.53-.15,2.79,2.79,0,0,1-.36-.22l-.2-.22a7.76,7.76,0,0,1-1.85-1.46q-1-1.15-1.4-1.58a8.75,8.75,0,0,1-.71-.83q-.29-.39-.91-1.26a13.07,13.07,0,0,1-2,1.34l-.2-.06.52-.73a7,7,0,0,0,.45-.84q.29-.62.41-.81L232.19,185l-.15.2a1.67,1.67,0,0,0-.18.48,5.86,5.86,0,0,1-.34.87,5,5,0,0,1-.52.87,17.09,17.09,0,0,0-.91,1.46l-.5.36-.17.14a1.21,1.21,0,0,1-.81.36l-.2-.17a3.23,3.23,0,0,1-.17-.52c-.09-.33-.18-.69-.25-1.09l-.39-2.11-.07.14a1.13,1.13,0,0,0-.07.32.69.69,0,0,1-.17.39.75.75,0,0,0-.18.34,2,2,0,0,1-.22.5,2.74,2.74,0,0,1-.35.5l-.5.57a5.07,5.07,0,0,1-1,.76l-.48-.17a8.76,8.76,0,0,1-.22-2.44l-.14.11-.87,1.06-.73.71a1.54,1.54,0,0,1-.67.35,1.39,1.39,0,0,1-.9-.08,3.69,3.69,0,0,0-.73-.24l-.59-.13a.54.54,0,0,1,.08-.45,1.22,1.22,0,0,0,.53-.31l.17.28a1.52,1.52,0,0,0,1.09-.2l.24-.56a5.85,5.85,0,0,0,.24-.76,4.39,4.39,0,0,0,.14-1.12,12.28,12.28,0,0,0-.07-1.26,2,2,0,0,0-.15-.76.66.66,0,0,1-.14-.22l-1.51.66a3.63,3.63,0,0,1-1,.27,2,2,0,0,1-.94-.11l-1.34-.53v-.31l.6.06a2.15,2.15,0,0,0,.57,0,10.91,10.91,0,0,0,1.9-.71,15.56,15.56,0,0,0,1.6-.74q-.2-1.34-.27-1.88a3.15,3.15,0,0,0-.28-1q-.21-.43-.6-1.55L220,177l.06-.14-.08-.17a1.49,1.49,0,0,1,.2-.21.33.33,0,0,1,.2,0,.5.5,0,0,0,.22,0,2.94,2.94,0,0,1,.43-.13,3.32,3.32,0,0,1,1.06,0,2.05,2.05,0,0,1,.88.22l.25.2a.68.68,0,0,0,.1.34.32.32,0,0,1,.07.21.81.81,0,0,0,.06.28,1.37,1.37,0,0,1,.06.45,2,2,0,0,0,.13.66,2.17,2.17,0,0,1,.11.78,4.42,4.42,0,0,1,0,.56,1.17,1.17,0,0,0,0,.2s0,.16,0,.36l.35.06a1.47,1.47,0,0,0,.49,0,3.69,3.69,0,0,1,.7-.07h.39a.24.24,0,0,0,.11-.07l-.06-.22.06,0,.2.06,2.6-1.82.34-.34q-.25-.5-.78-1.81a7.28,7.28,0,0,0-.77-1.57,4.5,4.5,0,0,1-.49-.69.69.69,0,0,0-.35,0,1.49,1.49,0,0,1-.43.08,3.4,3.4,0,0,1-.62,0,1.91,1.91,0,0,0-.36-.41c-.09-.06-.14-.12-.14-.17v-.18a.59.59,0,0,0,.35.08.62.62,0,0,0,.41-.14,1.1,1.1,0,0,1,.45-.21,4.9,4.9,0,0,0,.81-.32Zm-.91,8.13a.63.63,0,0,0-.25.73l-.11-.17-.45.25-.56.25-1,.42-.14.2a.27.27,0,0,0,0,.2,1.24,1.24,0,0,1-.07.41,10.57,10.57,0,0,0-.2,1.36,8,8,0,0,1-.21,1.34c-.07.19-.16.43-.29.73l1.54-1.29.08-.22.39-.2q.53-.56.77-.77A1,1,0,0,0,226,184l.08-.25a.16.16,0,0,0,.22,0q0-.81.07-1.12a1.76,1.76,0,0,0,0-.59q-.06-.28-.11-.92Zm0,2.91a2.44,2.44,0,0,1-.13.31q-.07.14-.39.67a4.15,4.15,0,0,1-.66.85,1.37,1.37,0,0,0-.41.59,1.84,1.84,0,0,0,0,.66,1.31,1.31,0,0,0,.13.52,1.67,1.67,0,0,1,.17.38q.42-.78.63-1.12a5,5,0,0,0,.41-.84,3.13,3.13,0,0,0,.22-.88q0-.38.14-1.16Zm3.14-4.62a16.33,16.33,0,0,0-2.16,1.26l.53.36a1.26,1.26,0,0,0,0,.24q0,.1.11.84c.07.5.11.8.11.91q.78-1.48,1.68-2.94l-.22-.64Zm1.23,4.48a19,19,0,0,1-1.93,1.12,1.45,1.45,0,0,1-.39.48l-.28-.28-.25.14q.11.36.43,1.16a4,4,0,0,0,.45.92,4.29,4.29,0,0,1,.32.38l.5-.69a6,6,0,0,0,.45-.84,6.19,6.19,0,0,0,.39-1q.11-.43.39-1.3Zm-.17-1.88a6.5,6.5,0,0,1-.57.81,1.21,1.21,0,0,0-.21.27.49.49,0,0,0,0,.18l.48-.17.31-.42.36-.14-.25-.5Zm4.2-8.29a2.27,2.27,0,0,0,.25.27.47.47,0,0,1,.14.29.32.32,0,0,1-.06.28,1.68,1.68,0,0,0-.22.34l-.45,0a3.78,3.78,0,0,1-.76-.08,7.44,7.44,0,0,0-1.06-.11,7.35,7.35,0,0,1-1-.1q-.5-.08-1.51-.34a3.25,3.25,0,0,1,.59-.1,1.51,1.51,0,0,0,.67-.29,1.67,1.67,0,0,1,.76-.31,6.37,6.37,0,0,0,.84-.14Z" transform="translate(-90.15 -48.52)"/><path class="cls-2" d="M270.35,175a1.73,1.73,0,0,1,.57.06,2,2,0,0,1,.67.28l.88.59a3.68,3.68,0,0,0,.49.64.53.53,0,0,1,.18.41.59.59,0,0,1-.08.35l-.25.31a10.88,10.88,0,0,1-2.32.14l-.08-.14a16.84,16.84,0,0,1-1.74.22,7.79,7.79,0,0,0-1.3.2q-.74.17-2.38.45l-3,.53a12.24,12.24,0,0,0-1.78.42,5,5,0,0,1-.77.24,6.64,6.64,0,0,0-.81.24,7.05,7.05,0,0,1-1.09.28,5.55,5.55,0,0,0-1,.27,3.73,3.73,0,0,1-.71.21,4,4,0,0,0-.64.17,2.46,2.46,0,0,1-.71.13,1.56,1.56,0,0,0-.7.18,4,4,0,0,1-.78.31,7.23,7.23,0,0,1-.91.21,1.27,1.27,0,0,1-.9-.22,2.69,2.69,0,0,0-.84-.38l-1.05-.25a.63.63,0,0,0,.25-.39,1.15,1.15,0,0,0,.7-.2l-.5.34.31.15a1.63,1.63,0,0,0,.7,0,4.75,4.75,0,0,0,1.25-.31,18.63,18.63,0,0,1,2.13-.6q1.47-.35,6.1-1.68t8.41-2.7l.11-.08.27,0a.67.67,0,0,0,.28-.1l.6-.32A1.26,1.26,0,0,0,270.35,175Zm-8.15,5.43.39.39-.06.78a5.67,5.67,0,0,1,.64-.13,5.46,5.46,0,0,1,1.15.06,12.49,12.49,0,0,1,1.43.24,3.16,3.16,0,0,1,.77.25l.41.22a2.25,2.25,0,0,0,.1.6.29.29,0,0,1-.06.32.86.86,0,0,0-.17.25,1.79,1.79,0,0,1-.14.28,1,1,0,0,0-.13.34,4.65,4.65,0,0,1-.14.53,5.15,5.15,0,0,1-.28.71,3.11,3.11,0,0,0-.21.52,2.8,2.8,0,0,1-.15.42l-.14.08,0,.2a.83.83,0,0,1-.13.21q-.11.16-.42.52a5.26,5.26,0,0,1-.59.32,4.55,4.55,0,0,1-.5.18.59.59,0,0,1-.49,0q-.21-.13-.57-.29,0,1.46,0,1.95a4.13,4.13,0,0,1,0,.66.66.66,0,0,0,0,.35,1.92,1.92,0,0,1,0,.77q-.09.59-.21,1.13a10.47,10.47,0,0,1-.38,1.23,5.81,5.81,0,0,1-.32.78l-.18.27-.14-.11a.56.56,0,0,1,0-.22,2.69,2.69,0,0,0-.18-.71,10.42,10.42,0,0,1-.34-2q-.13-1.39-.15-2.65t-.13-2.14a2.83,2.83,0,0,0-.25-1.09,2.66,2.66,0,0,1-.29-.55l.17.08q-.06-.76-.06-1.48a8.61,8.61,0,0,0-1.51.87.77.77,0,0,0,.22.24,2.36,2.36,0,0,1,.42.49.85.85,0,0,1,.21.67.55.55,0,0,0,.07.48.37.37,0,0,1,.07.36.86.86,0,0,0-.06.39.5.5,0,0,1-.07.34.26.26,0,0,0-.06.22c0,.07,0,.13,0,.15a.12.12,0,0,0,0,.08.26.26,0,0,1-.06.13l-.13-.06a.32.32,0,0,0-.2,0q-.15,0-.49-.24a.89.89,0,0,0-.53-.25.37.37,0,0,1-.32-.13c-.08-.09-.14-.13-.17-.1a.22.22,0,0,1-.15,0l-.17-.14a.18.18,0,0,1,.1-.14s.06-.12,0-.29a1.2,1.2,0,0,0-.31-.6,8.63,8.63,0,0,1-.73-1.11,7,7,0,0,1-.56-1.11,1.29,1.29,0,0,1-.1-.41.43.43,0,0,1,.07-.15h.22a.94.94,0,0,1,.42.14q.31.15,1,.46l2.77-1.46q0-.73,0-1a.58.58,0,0,0,0-.38.79.79,0,0,1-.13-.25l-.45-.22-.06-.11.2-.25a.57.57,0,0,0,.45-.08A8,8,0,0,0,262.21,180.4Zm-3.58-7.31a3.58,3.58,0,0,1,.59.08,5.41,5.41,0,0,0,1.13.07,2.91,2.91,0,0,1,1,.11,2.59,2.59,0,0,1,.59.32l.55.42a2,2,0,0,0,.29.36c.08.08.1.23,0,.46a5.9,5.9,0,0,0-.13.77,1.06,1.06,0,0,1-.29.67c-.17.17-.25.28-.25.34v.22a1,1,0,0,0-.25,0l-.06-.06s-.3-.14-.84-.36-.91-.39-1.12-.5l-.2-.2a3.24,3.24,0,0,0-.45-.1.42.42,0,0,1-.27-.15.34.34,0,0,0-.22-.14,1.48,1.48,0,0,1-.32-.06l.5-.22-.48-.39-.11-.2-.63-.53a.73.73,0,0,0-.36-.18.59.59,0,0,1-.28-.1l-.46-.34a1.63,1.63,0,0,0,.42-.14,1.14,1.14,0,0,1,.56-.11,4.67,4.67,0,0,0,.56,0v-.11Zm4.82,9.18-.92.28a5.41,5.41,0,0,0,0,.78,3.31,3.31,0,0,1,0,.84,1.58,1.58,0,0,0,0,.63c0,.2.08.53.14,1a2,2,0,0,0,1,.14l.21-.29a4.82,4.82,0,0,0,.34-1.05,6.14,6.14,0,0,0,.24-1.32.8.8,0,0,0-.08-.48,1.66,1.66,0,0,1-.2-.25l-.62-.25Z" transform="translate(-90.15 -48.52)"/><path class="cls-2" d="M294.21,173.57l.17-.11a1.1,1.1,0,0,0,.87.25l.25.25.5.11.39.5a3,3,0,0,1-.22.32,1.21,1.21,0,0,0-.15.24,2.73,2.73,0,0,1-.29.42,2.84,2.84,0,0,0-.35.55,1.09,1.09,0,0,0-.13.36.35.35,0,0,0,.08.21q1.79.34,3.64.56l.08-.06a1.75,1.75,0,0,0,.34,0,1.26,1.26,0,0,1,.43,0q.29.06.88.11l.39.5q0,.56,0,1.12a7.07,7.07,0,0,1-.87.36,5.42,5.42,0,0,0-.6.22,5.12,5.12,0,0,1-.87.27q-.55.13-1.19.34t-1.23.36a10.4,10.4,0,0,0-1.57.6,6,6,0,0,0-.14.62c0,.13,0,.37,0,.71a4.18,4.18,0,0,1-.07.76l-.22.91.91-.2a5.25,5.25,0,0,1,.94-.11,6,6,0,0,1,1.09,0,2.53,2.53,0,0,1,.88.28l1.08.6a1.32,1.32,0,0,0,.36.35c.09,0,.14.1.14.17a.65.65,0,0,0,.06.24l-.34.5a16.25,16.25,0,0,1-2.69,2.24,5,5,0,0,0-1.12.74,3.36,3.36,0,0,1-.74.55,1.91,1.91,0,0,0-.46.29l-.62.52,2.24-.39a8.23,8.23,0,0,1,1.66-.11,4.22,4.22,0,0,1,1.15.14l.57.2.11.08.34.22c0,.17.07.35.1.55a1.67,1.67,0,0,1,0,.38.82.82,0,0,0,0,.25l-.36.08a11.23,11.23,0,0,1-1.19.11,17.85,17.85,0,0,0-2,.25,20.05,20.05,0,0,1-2.14.27,7.91,7.91,0,0,1-1.85-.07,3.68,3.68,0,0,1-1.19-.36,2.19,2.19,0,0,0-.66-.28,2.23,2.23,0,0,1-.56-.2l.46-.06a5.25,5.25,0,0,0,.74-.22,3.46,3.46,0,0,0,.67-.28,1.54,1.54,0,0,1,.31-.17l1.09-1.34a12.88,12.88,0,0,0-1.3-.87,9.31,9.31,0,0,0-1.12-.5,3.34,3.34,0,0,1-1-.56q-.35-.31-.46-.31a.83.83,0,0,1-.31-.08l-.22-.34q1.76-.9,3.56-1.76l-.14-2.74a12.37,12.37,0,0,1-1.26.46,4.9,4.9,0,0,0-.8.29,4.07,4.07,0,0,1-.81.28,8.26,8.26,0,0,0-1.43.57,4.49,4.49,0,0,1-1.27.48.93.93,0,0,0-.49.14,1.34,1.34,0,0,1-.67.14,2.58,2.58,0,0,1-1-.2,4,4,0,0,0-.83-.25.85.85,0,0,1-.38-.11,2.1,2.1,0,0,0-.28-.18.87.87,0,0,1,.28-.7l.2-.11.22.2.28-.2q.42-.81.64-1.22t.67-1.12q.45-.71.69-1.19l.71-1.46-.45-.67a.32.32,0,0,1,.08-.1s0,0,0-.11a1.12,1.12,0,0,1,0-.29l.25-.17.7.67a3.85,3.85,0,0,0,.88.41,8.48,8.48,0,0,1,1.41.69l.17.22q-.14.25,0,.39l-1.12,1.48-.25.2-.64.92.36-.06q.17,0,4.17-1.93,0-.9,0-1.36a10.6,10.6,0,0,1,.11-1.3,7.78,7.78,0,0,0,.1-1.12,6.12,6.12,0,0,1,0-.7,1.92,1.92,0,0,1-.34-.15,2.76,2.76,0,0,1-.31-.24c-.13-.11-.23-.16-.31-.15h-.34l.11-.34a.5.5,0,0,0,.18.1,1.15,1.15,0,0,0,.34,0,1,1,0,0,0,.41-.17.42.42,0,0,1,.24-.11.48.48,0,0,0,.21-.06c0-.09,0-.19.14-.28a1.45,1.45,0,0,0,.28.11,1,1,0,0,0,.46-.11.82.82,0,0,0,.41-.25Zm-2,12.77a4.27,4.27,0,0,1-.78.28q-.66.2-1.41.48l.08.08q.56.28.9.42a5,5,0,0,0,.84.25,2,2,0,0,0,.62.08.4.4,0,0,0,.2-.11l-.14-1.51A.32.32,0,0,0,292.21,186.34Zm4.52-1.37q-.76.08-1.13.08a1.15,1.15,0,0,0-.59.13l-.63.38q0,1.2.06,2.38,1.2-1.37,2.41-2.83l-.08-.11Zm-1.48-8.18-.15.18a.81.81,0,0,0-.1.42c0,.23-.07.64-.14,1.22l1.79-.62.11-.11-1.51-1.06Z" transform="translate(-90.15 -48.52)"/><path class="cls-2" d="M326.61,179.1a2.37,2.37,0,0,0,.42,0,1.14,1.14,0,0,1,.63.11,1.74,1.74,0,0,1,.46.35c.13.14.34.34.62.6q.36-.08,1.78-.32t1.85-.36a1.36,1.36,0,0,1,.6-.08.61.61,0,0,0,.39-.06.45.45,0,0,1,.39,0,.48.48,0,0,0,.36,0,1.78,1.78,0,0,1,.53,0,1.7,1.7,0,0,1,.55.1l.46.2a.71.71,0,0,0,0,.24s0,.11-.06.2a3,3,0,0,0-.22.46q-.53.34-.74.5a.49.49,0,0,1-.38.14,1.52,1.52,0,0,0-.5,0,2.92,2.92,0,0,1-.83,0q-.49,0-1.33,0a18.75,18.75,0,0,0-2.27.22,7.91,7.91,0,0,0-1.61.32l-.43.28-.57.9a2.42,2.42,0,0,1-.5.55,3.43,3.43,0,0,0-.55.56q-.22.29-.84.94l-.81.56-.06-.06.2-.21.5-.66a3.78,3.78,0,0,0,.64-1.33,3.53,3.53,0,0,0,.17-.78l-.08-.13a5.12,5.12,0,0,1-1,.45q-.49.14-1,.32a7.17,7.17,0,0,1-.85.27,1.28,1.28,0,0,0-.56.25q0,1,0,1.6t-.11,2.11a19.69,19.69,0,0,1-.35,2.52,6.33,6.33,0,0,1-.28,1.08l-.17.14a2.71,2.71,0,0,1-.56,0,1.15,1.15,0,0,1-.63-.21l-.71-.52q-.39-.7-.6-1a7.2,7.2,0,0,1-.9-2.42,6.66,6.66,0,0,0-.39-1.41q-.27-.66-.5-1.16a4.37,4.37,0,0,0-.91-1.16,6.3,6.3,0,0,1-.67-.7v-.13c.41.06.72.09.94.1a2.45,2.45,0,0,1,.66.13l1.06.36.48.5a1.81,1.81,0,0,0,0,.48.34.34,0,0,1-.08.27.79.79,0,0,0-.08.52,1.93,1.93,0,0,0,.13.6,1.34,1.34,0,0,0,.25.41,2.08,2.08,0,0,1,.28.39,1.23,1.23,0,0,1,.13.6,2.12,2.12,0,0,0,.43,1l.55.81q.11.15.31.38a1.66,1.66,0,0,1,.25-.38,6.16,6.16,0,0,0,.52-1.4q.38-1.25.5-1.85t.38-1.69l-.8-.34q-.57-.25-1.55-.76h1.92A5,5,0,0,0,323,182a17.31,17.31,0,0,1,2-.7,4,4,0,0,0,.92-.31.38.38,0,0,1,.11-.1l.11-.59-.56-.48a1,1,0,0,0-.34-.2l-.5-.2-.08-.25h.22a1.14,1.14,0,0,0,.28-.06,1.09,1.09,0,0,1,.38,0h.36l.57-.07ZM318.3,175a1.17,1.17,0,0,0,.56,0,2,2,0,0,1,1,.22,4.13,4.13,0,0,1,.87.48,6.79,6.79,0,0,0,.63.45q.25.5.41.76a1.47,1.47,0,0,1,.2.59,1.2,1.2,0,0,1,0,.46l-.1.32a2.08,2.08,0,0,0-.59.36,1.58,1.58,0,0,1-.39-.08l-.59-.29a2.59,2.59,0,0,0-.62-.27l-.39-.08a2.81,2.81,0,0,0-.24-.34q-.1-.11,0-.55a.93.93,0,0,0-.2-.81c-.2-.25-.32-.42-.38-.52s-.13-.23-.22-.42l-.64-.45.14-.06Zm10.46-.57a.78.78,0,0,1,.36.2,1.45,1.45,0,0,0,.41.25,1.27,1.27,0,0,1,.39.25c.12.11.32.28.6.5l.14.53-.45.48q-.62.2-.92.32a.8.8,0,0,1-.56,0,3.14,3.14,0,0,0-.62-.13,1.78,1.78,0,0,0-.76.08l-.71.24q-.32.11-.7.21a3.62,3.62,0,0,1-.8.11,3.43,3.43,0,0,0-1,.22,1.38,1.38,0,0,1-.76.14.51.51,0,0,0-.35,0,.47.47,0,0,1-.27,0l-.17-.06a8.26,8.26,0,0,0,.81-.56,9.61,9.61,0,0,1,1.26-.8q.62-.32,1.82-1l-.62-.7-.14.06-.17-.11.21-.11a.91.91,0,0,1,.31-.08.76.76,0,0,1,.46.11,1.13,1.13,0,0,0,.56.14,1.15,1.15,0,0,0,.55-.13l.6-.32A3.7,3.7,0,0,0,328.76,174.38Zm2,10.85a3.38,3.38,0,0,0,.52.14q.43.1.73.2l.59.17a3.29,3.29,0,0,1,.69.27l.34.34a1.7,1.7,0,0,1-.25,1,8.93,8.93,0,0,1-2.6,1.9q.78.11,1.15.13a.82.82,0,0,1,.43.08.39.39,0,0,0,.21.1c0,.22,0,.38,0,.46s0,.14-.06.17a.39.39,0,0,0-.13.21,2.43,2.43,0,0,1-.25.22,1.92,1.92,0,0,1-.64.17,4,4,0,0,1-1.3-.06,9.72,9.72,0,0,0-1.57-.15h-1.36l.08.5a.4.4,0,0,1,0,.28l-.21.36-.28,0a.81.81,0,0,1-.35-.14,4.13,4.13,0,0,1-.42-.28q-.18-.14-.49-.42t-.27-.7q-.1-.31-.71-1.64a9.19,9.19,0,0,0-.84-1.58q-.22-.25-.5-.62l-.22,0-.22-.45a.82.82,0,0,0,.27-.14.62.62,0,0,1,.31-.13h.43a.75.75,0,0,1,.39.1,1.41,1.41,0,0,0,.22.14,2.51,2.51,0,0,0,.73,1h.14s.7-.25,2-.77a12.43,12.43,0,0,1,2.38-.81,9.25,9.25,0,0,0,.94-.11A.38.38,0,0,1,330.75,185.23Zm-1.6,1.27q-.92.22-1.37.29a3.71,3.71,0,0,0-.85.24l-1.27.5a1.6,1.6,0,0,0,.34.38.61.61,0,0,1,.2.41,1,1,0,0,0,.35.56.83.83,0,0,1,.32.55,1.13,1.13,0,0,0,.08.39l.2.35.92-.28a4.47,4.47,0,0,1,.34-.31,4.71,4.71,0,0,0,.59-1.08,8.23,8.23,0,0,0,.5-1.23q.06-.27.11-.63l-.42-.11Z" transform="translate(-90.15 -48.52)"/><path class="cls-2" d="M96.47,207l.2.22a5.24,5.24,0,0,1,1.62.42,1.91,1.91,0,0,1,.22.21.83.83,0,0,1,.11.25.73.73,0,0,1-.13.52,6.14,6.14,0,0,1-1.12,1.18,6.9,6.9,0,0,0-1.22,1.3,3.59,3.59,0,0,1-.71.84,4.56,4.56,0,0,0-.67.7,4.76,4.76,0,0,1-.46.55q-.22.23-.84,1l.56,0a3,3,0,0,1,.66.15,1.57,1.57,0,0,1,.62.32l.43.43c0,.21.07.36.1.48a2.39,2.39,0,0,1,0,.53,1.11,1.11,0,0,1-.13.57,1.38,1.38,0,0,0-.17.39,2.81,2.81,0,0,1-.21.53q-.17.35-.39.85l.59.42.39.45.14-.06q.22-.64.34-1A14,14,0,0,1,97,216.9a6.14,6.14,0,0,0,.45-1.26q0-.32,0-.38a.57.57,0,0,1-.17-.22l-.14.06,0-.06.22-.06q.08,0,.32.13a5,5,0,0,1,.49.36l.81.66,1.29-.42.94-.88q.38-.35,1.3-1.36a9.86,9.86,0,0,0,1-1.15l.11-.28a1.52,1.52,0,0,1-.32,0,.92.92,0,0,0-.43.08,4.19,4.19,0,0,0-.63.29q-.32.18-1,.66l-.87,1.2-.48-.36a2.07,2.07,0,0,1-.07-.31c0-.07,0-.21,0-.39a1.47,1.47,0,0,1,0-.48.59.59,0,0,1,.17-.29,1.62,1.62,0,0,0,.28-.41l.31-.14a5.5,5.5,0,0,1,1.2-1.43h-.27a4.44,4.44,0,0,0-.91.28q-.81.29-1.5.48a2.74,2.74,0,0,1-1.25.07A1.94,1.94,0,0,1,97,211l-.08-.25.17-.08a.14.14,0,0,0,.13.1,4.62,4.62,0,0,0,.83-.17q.73-.18,2.2-.71t3.23-1.11a17.82,17.82,0,0,1,3.15-.76,5,5,0,0,1,1.58-.08l.48.21c0,.06,0,.09,0,.1s0,0,0,0a.44.44,0,0,0-.1.2q-.39.17-.62.24t-.8.18q-.57.11-2.09.49a9.13,9.13,0,0,0-1.86.59q-.35.21-.77.52a5,5,0,0,0-1.23,1.57l.11.11a11.4,11.4,0,0,1,2.18-.67l.25-.22.17,0,.25,0a1.1,1.1,0,0,1,.43,0,.93.93,0,0,1,.48.22l.6.49a.92.92,0,0,1-.36.59q-.76.45-1.27.7t-3.26,2.07l0,.11.39-.17q.2-.08,1.53-.53a18.27,18.27,0,0,1,3.18-.71,14.09,14.09,0,0,1,2.27-.22,10.74,10.74,0,0,1,1.18.21,2.8,2.8,0,0,1,1.08.42q.32.25.8.59l.18.17a.19.19,0,0,1,.07.15q0,.1,0,.38a1.08,1.08,0,0,0-.27.15,1.47,1.47,0,0,1-.46.2,4.27,4.27,0,0,1-.66.14,10.2,10.2,0,0,0-1.37.38,5.21,5.21,0,0,1-1.41.32,3.6,3.6,0,0,0-.57,0,1.26,1.26,0,0,1-.5-.06.58.58,0,0,0-.48,0,1,1,0,0,1-.34.14l-.49.11,1.79-.9,1-1,0-.11a.43.43,0,0,0,.22-.34l-.8-.29a2.26,2.26,0,0,0-1-.07,11.78,11.78,0,0,0-1.47.24,10.64,10.64,0,0,0-2,.74,14.05,14.05,0,0,1-2.09.8,5.2,5.2,0,0,0-1,.35.55.55,0,0,1-.24.11.89.89,0,0,0-.24.06l.22.57a1.74,1.74,0,0,1,.08.62.86.86,0,0,1-.11.53,1.37,1.37,0,0,0-.17.22.47.47,0,0,1-.11.14.48.48,0,0,0-.11.13l-.32,0a.68.68,0,0,1-.29-.11l-.56-.31-.28-.45a6.36,6.36,0,0,0-.17.64,4.65,4.65,0,0,0-.1.83q0,.43-.1,1.18t-.31,2q-.22,1.27-.28,1.44a1.44,1.44,0,0,0-.06.45l-.25.11-.48-.25a2.55,2.55,0,0,1-.7-1.46,6.82,6.82,0,0,1,.29-1.18,2.58,2.58,0,0,0,.15-.77,2.5,2.5,0,0,0-.11-1.06,3.34,3.34,0,0,0-.28-.66q-.11-.17-.34-.56l-.5.73a.21.21,0,0,1-.11.1.26.26,0,0,1-.15,0l-.29-.13a1.23,1.23,0,0,1-.18-.27,1.08,1.08,0,0,0-.22-.28.59.59,0,0,1-.18-.43,3,3,0,0,1,0-.5,3.64,3.64,0,0,1,.29-.8q.25-.55.84-2.09l-.14-.31-.31-.2-1,.28a1.74,1.74,0,0,0-.62.31l-1,.7-.28-.34-.34-.22-.14.11a4.92,4.92,0,0,0-.28-.64.92.92,0,0,1,0-.66,2.21,2.21,0,0,1,.73-1,19.82,19.82,0,0,0,1.72-1.85,14.22,14.22,0,0,0,1.47-1.95q.35-.63,1-1.61l-.31-.11-.56-.59a1.16,1.16,0,0,0,.29,0,1.13,1.13,0,0,1,.36,0,2,2,0,0,1,.46.1.48.48,0,0,0,.39,0,.46.46,0,0,1,.29-.07.15.15,0,0,0,.15,0,.35.35,0,0,1,.14-.08Zm6.72,8.92a.69.69,0,0,1,.25.14,1.61,1.61,0,0,0,.34.21,3.61,3.61,0,0,0,.08,1.74,1.47,1.47,0,0,0,.36-.08,2.5,2.5,0,0,1,.66-.07,3.43,3.43,0,0,1,1,.1,2.93,2.93,0,0,1,.69.25,2.14,2.14,0,0,0,.45.2.8.8,0,0,1,.31.15l.31.24a3.81,3.81,0,0,1-.2.7,5.64,5.64,0,0,1-.38.85,4.89,4.89,0,0,0-.35.78,1.71,1.71,0,0,1-.21.48,1.13,1.13,0,0,0-.15.21,1,1,0,0,1-1.18-.2l-.22-.36-.76-.39q0,.28,0,.5a7.92,7.92,0,0,0,.13,1.15,17.62,17.62,0,0,1,0,3.05,7.38,7.38,0,0,1-.39,2.62,6.15,6.15,0,0,0-.35.63l-.36.2a2.35,2.35,0,0,1,0-.52,2.09,2.09,0,0,0-.14-.73,8.28,8.28,0,0,1-.25-1,3.28,3.28,0,0,1,0-1.12,9.16,9.16,0,0,0,0-2.17q-.15-1.54-.15-2.3a6.31,6.31,0,0,0-.06-1,6.65,6.65,0,0,1-.08-.92l-1.9.81.81.56.36,1a1.43,1.43,0,0,1,.13.48.3.3,0,0,0,0,.18.71.71,0,0,1,0,.34l-.14.11a.86.86,0,0,1-.92-.39l-.08-.18a.76.76,0,0,0-.18-.21.42.42,0,0,1-.15-.32,1.18,1.18,0,0,0-.14-.48q-.14-.29-.42-1.08l-.62-.22-.14-.17.36-.11.08-.22,0,.08a1.38,1.38,0,0,0,.29.07,2.35,2.35,0,0,0,.71-.24q.59-.25,1.88-.76c-.06-.45-.09-.76-.1-1a1.27,1.27,0,0,0-.1-.46,5.31,5.31,0,0,1-.22-.69l-.2-.11.08-.06L102,216l.24-.18a.35.35,0,0,1,.21,0,.32.32,0,0,0,.18,0,.17.17,0,0,1,.1,0Zm-.31-10.12a2.53,2.53,0,0,1,.57.1,2.29,2.29,0,0,1,.36.15,3.21,3.21,0,0,1,.41.28l-.14.14.14.25a.86.86,0,0,0-.22.48,1.87,1.87,0,0,1-.42.18,1.48,1.48,0,0,1-.36,0h-.42a4,4,0,0,1-.83-.15,4.63,4.63,0,0,1-1.23-.53,2.84,2.84,0,0,0-.87-.41l-.52-.06a2.42,2.42,0,0,0,.45-.13,3.28,3.28,0,0,0,.41-.21,1.44,1.44,0,0,1,.67-.15,3.64,3.64,0,0,0,.55,0l.25-.06Zm1.34,12.75a.15.15,0,0,0-.14,0l-.2.06a5.27,5.27,0,0,1,.06.63,2.55,2.55,0,0,0,0,.45,1.63,1.63,0,0,1,0,.41.77.77,0,0,0,.13.42.87.87,0,0,0,.7-.14l.28-1.65-.59-.11A.76.76,0,0,1,104.23,218.52Z" transform="translate(-90.15 -48.52)"/><path class="cls-2" d="M127.64,214.76a1.05,1.05,0,0,0,.25,0l.27,0a.92.92,0,0,1,.29.14l.32.28a.31.31,0,0,1,.11.15.49.49,0,0,0,0,.13q-.08.14-.38.55a2.81,2.81,0,0,0-.41.74,4.17,4.17,0,0,0-.17.71,4.1,4.1,0,0,0,0,.76,3,3,0,0,0,.21.91,4.31,4.31,0,0,0,.56,1,5.45,5.45,0,0,0,.77.87,5.22,5.22,0,0,1,.64.67l.77,1q1,.17,2.09.42l1.41.31-.2-.29q-.08-.13-.41-.83t-1.67-3.47l-.25.08.08-.14-.14-.17.39-.22.52.34a2.47,2.47,0,0,0,.55.22,2,2,0,0,0,1-.06,8.77,8.77,0,0,0,1.57-.59,9.74,9.74,0,0,1,1.4-.56,1.82,1.82,0,0,0,.59-.22.32.32,0,0,1,.17-.1l.25,0,.17.06.17-.06a2.81,2.81,0,0,0,.53.25,5.88,5.88,0,0,0,.57.2,1.34,1.34,0,0,1,.46.25,3.48,3.48,0,0,1,.45.76,15.23,15.23,0,0,0-2.1,2.32,2.14,2.14,0,0,0,.28.39q.11.11.08.18a.48.48,0,0,0,0,.27,1.62,1.62,0,0,0-.36.24c-.09.09-.29.1-.6,0a5.8,5.8,0,0,0-1.37,0,5.06,5.06,0,0,0-1,.13l-.18.11a6.06,6.06,0,0,0,.15.78,1.6,1.6,0,0,0,.18.48q.84.2,1.53.29a12.53,12.53,0,0,0,1.93.07,25.8,25.8,0,0,1,3,.14q1.74.17,1.9.22l.39.11.08.28a2.61,2.61,0,0,1-.69.59,4.33,4.33,0,0,1-.78.34,2.68,2.68,0,0,1-.83.14,3.55,3.55,0,0,0-.73.07,4.63,4.63,0,0,1-.78.08,5.51,5.51,0,0,0-.83.08,3.07,3.07,0,0,1-.84,0,11.73,11.73,0,0,1-1.68-.38,19.07,19.07,0,0,1-2.53-.91,18.52,18.52,0,0,0-2.37-.87q-1.05-.29-1.79-.43a3.29,3.29,0,0,0-1.27,0,2,2,0,0,1-.88,0,1.32,1.32,0,0,0-.77.07,3.08,3.08,0,0,1-1.19.11,6,6,0,0,1-1.34-.21,4.13,4.13,0,0,1-.66-.22l.06-.2h.1s.1,0,.17-.13.13-.12.18-.11h.17l.08.08-.2.06-.14.11.69-.07a4,4,0,0,0,.83-.25,3.18,3.18,0,0,1,1.18-.21q.64,0,1.82-.06a17.66,17.66,0,0,0-1.23-1.3,3.68,3.68,0,0,1-.76-1,7.81,7.81,0,0,1-.6-1.51,5.23,5.23,0,0,1-.24-1.41,1.73,1.73,0,0,0-.06-.64.34.34,0,0,1-.08-.14q-.56.34-1.76.92a9.83,9.83,0,0,1-1.68.7,3.41,3.41,0,0,1-.69.11.75.75,0,0,1-.36-.08l-.43-.25-.17-.25.11-.5a.7.7,0,0,0,.28.39l.67-.25a10.73,10.73,0,0,0,1.29-.77,12.68,12.68,0,0,1,1.57-.91,14.74,14.74,0,0,0,1.37-.73l.25-.31a.49.49,0,0,0,.39-.06Zm-1.82-4.34a1.67,1.67,0,0,1,.7.17,1.55,1.55,0,0,1,.46.28,2.91,2.91,0,0,0,.29.28l.17.73-.11.17a2.46,2.46,0,0,0-.41.17.42.42,0,0,1-.38,0,2.85,2.85,0,0,0-.62-.17l-.8-.17a2.26,2.26,0,0,1-.67-.27l-.77-.48a.88.88,0,0,1-.2-.64,1.87,1.87,0,0,0,1.34-.11Q125.48,210.42,125.82,210.42Zm10.4-3.68a3.05,3.05,0,0,1,.46,0,.78.78,0,0,1,.52.17,3.6,3.6,0,0,0,.32.31l-.25.76a4.16,4.16,0,0,0-.22,1,2.39,2.39,0,0,1-.14.73,1.43,1.43,0,0,0-.08.64,1.19,1.19,0,0,1,0,.49.41.41,0,0,0,0,.22c0,.07,0,.19,0,.38l.5,0h.52a4,4,0,0,1,.66,0,2.82,2.82,0,0,0,.62,0,.89.89,0,0,1,.53.11l-.11.25-.53.48a2.19,2.19,0,0,1-.94.34,5.19,5.19,0,0,0-.9.22l-.46.22a10.94,10.94,0,0,0-.34,2.13,42,42,0,0,1,4.44-1.19q1-.15,1.62-.2a2.94,2.94,0,0,1,.74,0l.34.07.34.34a1.17,1.17,0,0,0-.36.45l-.34.17-.39.5-.36.06-.91.1q-.77.07-2.16.29a24.52,24.52,0,0,0-2.42.5l-2.25.59a17.93,17.93,0,0,0-2.49.84,14.72,14.72,0,0,1-2,.71,6.56,6.56,0,0,0-1.08.34l-.43.18a1.31,1.31,0,0,1-.32,0,2.37,2.37,0,0,0,.06-.42,2,2,0,0,1,0-.25,1,1,0,0,0,0-.22.64.64,0,0,1,0-.28l.2-.08.08-.11a.92.92,0,0,1,.22-.13,2.91,2.91,0,0,0,.53-.41,8.5,8.5,0,0,1,.77-.6,1.12,1.12,0,0,1,.53-.24,2.47,2.47,0,0,0,.46-.06l.06.17-.34.22-.28.56-.56.48,0,.11.77-.27a6.32,6.32,0,0,0,.8-.39,5.56,5.56,0,0,1,1-.45q.49-.15,1.36-.49a.88.88,0,0,1,0-.39.85.85,0,0,0,.42-.06q.06-.9.11-1.23a1,1,0,0,0,0-.43,1.25,1.25,0,0,1-.07-.29,12,12,0,0,1-1.44.56,9.24,9.24,0,0,1-1.61.48,2.59,2.59,0,0,0-.59.11,1.25,1.25,0,0,1-.48.07l-.64-.07-.06-.2a.24.24,0,0,0,.11,0,5.81,5.81,0,0,0,.69-.24,12.63,12.63,0,0,0,1.19-.52l-.22-2.6-.62-.34-.22-.25a.23.23,0,0,0,.13,0,.84.84,0,0,1,.36.07,1.66,1.66,0,0,0,.78,0,1.86,1.86,0,0,1,.88,0,2.58,2.58,0,0,1,.57.22l.35.24a1.26,1.26,0,0,1-.08.29,3.48,3.48,0,0,0-.14.63,3.43,3.43,0,0,1-.14.63,2.16,2.16,0,0,0-.11.46q.59-.25.92-.36c.22-.07.35-.15.39-.22q-.06-.67-.07-1a8.9,8.9,0,0,1,.08-1.22,6.1,6.1,0,0,0,.06-1.22q0-.38-.07-1a1.56,1.56,0,0,1-1.32-.56l.08-.06h.14a.5.5,0,0,0,.21,0l.46-.15.22-.22.14-.06.2-.2.34.06.11-.17,1.06-.25A.1.1,0,0,0,136.22,206.73Zm.8,12.53-.39.15q-.2.07-1.12.28a7.35,7.35,0,0,0-1.34.41,3.45,3.45,0,0,0,.24.42q.1.14.34.56a4.79,4.79,0,0,1,.38.84l1-.25.27-.38a2.4,2.4,0,0,0,.25-.55q.15-.42.49-1.43Z" transform="translate(-90.15 -48.52)"/><path class="cls-2" d="M162.69,211.37a.41.41,0,0,0,.29.14.63.63,0,0,0,.35-.14q.2-.14.73,0a5.24,5.24,0,0,0,.78.18l.22.5,1.51-.17a2.59,2.59,0,0,0,.7-.15,2.63,2.63,0,0,1,.69-.15,2,2,0,0,1,1.09.27,5.41,5.41,0,0,1,.74.42l.25.24a2.61,2.61,0,0,0,.1.29.56.56,0,0,1,0,.34,2,2,0,0,1-.45.66,2.27,2.27,0,0,0-.49.76,1,1,0,0,1-.28.48,1.1,1.1,0,0,0-.27.32c-.07.12-.18.36-.35.71l.39.2a1.15,1.15,0,0,0,0,.28.69.69,0,0,1,0,.32.58.58,0,0,1-.15.29l-.27.25a7.62,7.62,0,0,1-1,.15,4,4,0,0,0-.59.07,5.47,5.47,0,0,1-.62.08,10.63,10.63,0,0,0-1.2.22c-.06.39-.09.67-.1.83a1,1,0,0,1-.13.43,3.37,3.37,0,0,0-.25.7l.14.17a18.23,18.23,0,0,0,2,1q.74.31,1.65.74a15.12,15.12,0,0,0,1.65.69,7.68,7.68,0,0,0,1.62.35q.88.1,2.06.31a5.93,5.93,0,0,1,1.5.39l.8.46.11.11.42.17-.14.06.28.25c-.19.19-.34.33-.45.42a2.31,2.31,0,0,1-.62.31,4.07,4.07,0,0,1-.84.22,5.21,5.21,0,0,1-.73.06q-.34,0-1.11.06t-1.08.11l-.17-.17-.08.14-.69-.06a2.33,2.33,0,0,1-.52-.08,6.35,6.35,0,0,1-1.37-.76,18,18,0,0,1-1.71-1.23q-.67-.56-1.23-1t-1-.66l-1.23-.76q-.28.28-.46.43a6.09,6.09,0,0,1-.63.43,8.14,8.14,0,0,1-1.32.62,8.51,8.51,0,0,1-1.76.48,7.2,7.2,0,0,1-1.65.08,10.43,10.43,0,0,1-1.41-.2,3.62,3.62,0,0,1-.88-.27l-.56-.32a6.18,6.18,0,0,1-.7-1.62l.39.73a6.26,6.26,0,0,1,.6.48,1.73,1.73,0,0,0,.69.34,5.3,5.3,0,0,0,1.26.17,10.25,10.25,0,0,0,1.6-.07,6,6,0,0,0,1.43-.34,10.57,10.57,0,0,0,1-.45,10.25,10.25,0,0,0,1-.63l.36-.5q-.5-.25-1.69-.76t-2.14-.85a5.1,5.1,0,0,0-1.75-.35q-.8,0-1.06,0l-.66-.08.08-.14q1-.14,1.51-.27a5,5,0,0,1,1.15-.13,4.45,4.45,0,0,1,1.11.13q.49.13,1.3.29l-.06-.17.39-.39a6.24,6.24,0,0,0,.67-.39,16.58,16.58,0,0,1-2-2.8l-.62-.45-.06-.28.11-.06.08-.06a3.89,3.89,0,0,1,.57-.18,1,1,0,0,1,.42,0l.66.13a3.65,3.65,0,0,0,.62.7.72.72,0,0,1,.28.36.94.94,0,0,0,.15.32.78.78,0,0,1,.14.32,4.19,4.19,0,0,0,.28.71,6,6,0,0,1,.27.63l1-.92.06-.25a2.21,2.21,0,0,1-1.26-.42q.62-.34,1.32-.67l.08-.25a.43.43,0,0,0,0-.25,3.57,3.57,0,0,1-.11-.5l-1,.28a1.22,1.22,0,0,1-.69,0,1.45,1.45,0,0,1-.5-.2,3.31,3.31,0,0,1-.38-.34l.2-.11.08.17h.29a1.69,1.69,0,0,0,.53-.2l1.3-.59-.08-.43a.54.54,0,0,0-.24-.31,1.43,1.43,0,0,1-.29-.27l-.25-.34S162.6,211.27,162.69,211.37Zm8.4-3.74q.45,0,.92.13a1.56,1.56,0,0,1,.62.2l-.06.08a1.47,1.47,0,0,0,.15.32c0,.07.06.11,0,.14a.29.29,0,0,0,0,.15l-.35.08-.29.13a3.31,3.31,0,0,1-1.18,0,9.22,9.22,0,0,0-1.78,0,3.42,3.42,0,0,0-1.11.27,2,2,0,0,1-.76.21,4.18,4.18,0,0,0-1,.25A6.17,6.17,0,0,1,165,210a6.2,6.2,0,0,0-1.34.34,6.42,6.42,0,0,1-1.09.32,5,5,0,0,0-.84.22,4.78,4.78,0,0,1-.88.22,12.65,12.65,0,0,0-1.26.29,7.77,7.77,0,0,1-1.48.27,2.57,2.57,0,0,1-.88,0,2,2,0,0,1-.35-.21l-.08-.22-1.06-.81-.25-.36.14-.39h.2l0,.28a1,1,0,0,0,.25.18,3.87,3.87,0,0,0,1,.07,10.5,10.5,0,0,0,2.28-.32q1.39-.32,3.25-.83l3.42-.91a13.44,13.44,0,0,1,2.24-.45q.69,0,1.5-.13Zm-7.7,10.54-1.54.62,0,.11,1.34.5.14-.17s.05-.13,0-.28a7.35,7.35,0,0,1,0-.76Zm0-1.6-1,.7.14.45.92-.45v-.67Zm2.66-1.51-1.09.53c0,.37-.07.63-.1.76a.85.85,0,0,0,0,.28l0,.22.5-.2-.14-.14.81-.28a6,6,0,0,1,0-.67,1,1,0,0,0,0-.48Zm.29-2.13s-.12,0-.34,0l-1,.1a.62.62,0,0,1-.08.22.78.78,0,0,0-.07.35c0,.18,0,.28,0,.32a1.14,1.14,0,0,1,.14.2l1.23,0,.2-1.09-.11-.11A0,0,0,0,1,166.38,212.94Z" transform="translate(-90.15 -48.52)"/><path class="cls-2" d="M194.15,207.59a1.7,1.7,0,0,1,.91.27,4.36,4.36,0,0,0,.73.46,1.07,1.07,0,0,1,0,.49,5.1,5.1,0,0,0-.13.6q-.07.42-.29,1.57t-.32,1.47a1.08,1.08,0,0,0-.07.46,1.61,1.61,0,0,1,.36-.11l.67-.11a8.26,8.26,0,0,1,1.18-.1,6,6,0,0,1,1.3.11,1.61,1.61,0,0,1,.8.31l.39.43v.11a.91.91,0,0,0,.08.25,1.17,1.17,0,0,1-.15.76,17.37,17.37,0,0,0-.63,2q.39.42.62.63a4.63,4.63,0,0,1,.57.73,12.29,12.29,0,0,1,.7,1.19,7.52,7.52,0,0,0,.56,1,.85.85,0,0,1,.21.46.63.63,0,0,0,.07.31.67.67,0,0,1,.08.22q0,.1.14.57a1.26,1.26,0,0,1,.07.62,2.5,2.5,0,0,0-.11.42,1.78,1.78,0,0,1-1.6-.45l-.55-1a3.09,3.09,0,0,1-.22-.5,2.1,2.1,0,0,0-.38-.62,11,11,0,0,1-.9-1.46,7.45,7.45,0,0,1-.42.8,2.2,2.2,0,0,0-.25.6,6,6,0,0,1-.35.9,2.34,2.34,0,0,1-.42.67,1.25,1.25,0,0,0-.25.29l-.29.55-.31.08-.45.56a.87.87,0,0,0-.38.2,3.92,3.92,0,0,1-.69.42q-.53.28-1.18.56l-.11-.14-.39-.31q-.28-.45-.38-.63a.91.91,0,0,1-.11-.38,1.72,1.72,0,0,0-.1-.43l-.2-.59q-.11-.35-.39-1.33l-.28.17-.87.87a1,1,0,0,0-.41.07,2.48,2.48,0,0,1-.5.14,3,3,0,0,1-.48.07h-.27l.56-.42a3.3,3.3,0,0,1,.36-.48,3.62,3.62,0,0,0,.45-.8,37.12,37.12,0,0,0,1.2-4.33q-1.23.56-1.82.77a2.57,2.57,0,0,0-.76.36.76.76,0,0,1-.38.2,1.5,1.5,0,0,1-.46,0,2.28,2.28,0,0,0-.5,0,.72.72,0,0,1-.5-.15,5.56,5.56,0,0,0-.87-.46L186,216l.48.08a4.12,4.12,0,0,0,.76,0,27,27,0,0,0,4.56-2,37.15,37.15,0,0,0,.73-5.35l-.78-.67-.14-.25.2-.2a1,1,0,0,0,.25.1h.29a1.32,1.32,0,0,0,.42-.07l.66-.18A2.3,2.3,0,0,0,194.15,207.59Zm.32,7.11a6.7,6.7,0,0,0-.06.73,1.39,1.39,0,0,1-.22.64,2.68,2.68,0,0,0-.31.81,2.35,2.35,0,0,1-.32.8q-.24.38-.6.85a5.38,5.38,0,0,0-.53.81,2.38,2.38,0,0,1-.27.45l-.35.36a4.62,4.62,0,0,0,.15.52q.07.18.29.63a2.89,2.89,0,0,0,.38.62q.15.17.41.39l.6-1.12q.24-.45.94-2.1a16.35,16.35,0,0,0,.87-2.39,6.83,6.83,0,0,0,.18-1.09q0-.35.13-1.27A2.4,2.4,0,0,0,194.47,214.7Zm12.4.39a1.4,1.4,0,0,0,.2.28.34.34,0,0,1,.1.21c0,.08,0,.22.07.41l-.73.84-.25.17-.67,1-.53.39-.06.11-.46.39a.55.55,0,0,1-.29.14,1.89,1.89,0,0,0-.34.67q.64,0,1-.07a4.65,4.65,0,0,1,.81,0,2.46,2.46,0,0,1,.71.13l.64.24a.75.75,0,0,0,.24.21c.07,0,.13.12.2.27a1.06,1.06,0,0,1,.1.42,5.16,5.16,0,0,0,.06.62l-.2.06a6.63,6.63,0,0,1-1.15-.18,11.72,11.72,0,0,1-1.68-.43,3.49,3.49,0,0,0-1-.24,6.81,6.81,0,0,1-1-.13l-.39-.48a1.13,1.13,0,0,1-.2-.56,1.1,1.1,0,0,1,.11-.7,2.58,2.58,0,0,0,.25-.71,2.36,2.36,0,0,1,.31-.77,2.16,2.16,0,0,0,.24-.45c0-.06,0-.12,0-.2q-.62,0-1.37.1a7.52,7.52,0,0,0-1,.14,1.41,1.41,0,0,1-.52,0l-.22-.17h.35a8.07,8.07,0,0,0,1.32-.63q1.19-.63,1.75-1a3.41,3.41,0,0,1,.73-.42l.45-.1A18.29,18.29,0,0,1,206.88,215.09Z" transform="translate(-90.15 -48.52)"/><path class="cls-2" d="M224.91,207.5a.92.92,0,0,1,.43.06,2.06,2.06,0,0,0,.66.08,7,7,0,0,0,.94-.07,3.23,3.23,0,0,1,1.16.08,8.32,8.32,0,0,1,.9.25l.48.21a.77.77,0,0,0,.29.27c.1,0,.16.16.17.35a1.85,1.85,0,0,1,0,.42,2.13,2.13,0,0,0,0,.39q.39-.09.66-.17a2.3,2.3,0,0,1,.69-.08,1.89,1.89,0,0,0,.7-.11.77.77,0,0,1,.57,0,4.58,4.58,0,0,0,1,.2l0,.08a7.76,7.76,0,0,0,1.23.29,1.06,1.06,0,0,1,.56.18l.48.42a.61.61,0,0,0,0,.2.3.3,0,0,1,0,.2,2.85,2.85,0,0,0-.1.42l-.29.15a2.55,2.55,0,0,1-.43.17,2.13,2.13,0,0,1-.66.1,2.84,2.84,0,0,0-.92.21q-.57.21-1.08.45a4.89,4.89,0,0,1-1,.35,3.1,3.1,0,0,0-.92.38,1,1,0,0,1-.73.2,1.07,1.07,0,0,0-.42,0,.79.79,0,0,1-.35,0l.42-.34a30.89,30.89,0,0,0,2.27-2.41,1.26,1.26,0,0,1-.35-.1,2.56,2.56,0,0,0-1.05.2,16.14,16.14,0,0,0-2.6,1.16,8.36,8.36,0,0,1-2.21.94,1.44,1.44,0,0,0-.73.21l-.87.62-.27.43a1,1,0,0,0-.1.35.91.91,0,0,1-.17.42,6,6,0,0,0-.42.78c-.28.24-.48.42-.59.53a1.37,1.37,0,0,1-.42.28,1.2,1.2,0,0,1-.49.11,5.48,5.48,0,0,0-.77.08,2.68,2.68,0,0,0-.24-.41q-.1-.13,0-.52a2.37,2.37,0,0,0,0-1,5.22,5.22,0,0,1,0-1.61q.1-1,.11-1.55c0-.39-.05-.63-.18-.73a2.23,2.23,0,0,1-.45-.48h.24l.25,0a1.41,1.41,0,0,1,.64.18q.46.21.88.45t1.18.77l.08.11.36.31.17.28,5.1-2,0-.06h-.17a1.07,1.07,0,0,1-.31-.14,1,1,0,0,0-.49-.14,2.52,2.52,0,0,1-.62-.1,2.21,2.21,0,0,0-.83,0,.8.8,0,0,1-.69-.17,1.06,1.06,0,0,0-.35-.25.92.92,0,0,1-.25-.11,2.85,2.85,0,0,1,.7-.08l.28-.39-.36-.36a1.5,1.5,0,0,1-.35-.13,1.38,1.38,0,0,1-.43-.35l.11,0-.14-.2S224.78,207.52,224.91,207.5Zm3.61,9.11a.68.68,0,0,1,.25,0,1.83,1.83,0,0,0,.43,0l.5,0a2.8,2.8,0,0,0,.49,0,.49.49,0,0,1,.39.13l.28.36-.11.2-.17.11-.06.11q-1.18.73-2.24,1.48-.5.7-.77,1a3.35,3.35,0,0,1-.59.56.88.88,0,0,0-.38.55,1.16,1.16,0,0,1-.35.6,2.85,2.85,0,0,0-.42.5,1.92,1.92,0,0,1-.29.38,9.27,9.27,0,0,0-.62.76q-.36.31-.52.46a.7.7,0,0,1-.38.2,1.17,1.17,0,0,0-.42.17,1.73,1.73,0,0,1-.42.2,2.24,2.24,0,0,1-.57.08,1.28,1.28,0,0,1-.52-.06,1.92,1.92,0,0,1-.36-.21.76.76,0,0,1-.22-.56l.36.11a1.1,1.1,0,0,0,.43,0,.76.76,0,0,0,.46-.15,4.85,4.85,0,0,1,.48-.34q.7-1,1.09-1.44t.83-1.09a9.09,9.09,0,0,1,.77-1,1.15,1.15,0,0,0,.36-.69,9.65,9.65,0,0,1-1.53.55l-1.22.32c-.39.11-.71.21-1,.31a1.94,1.94,0,0,1-.7.14q-.11-.11,0-.31l1-.81a.43.43,0,0,0-.11.53q4.62-2.24,4.87-2.46l.5-.45a1.12,1.12,0,0,1,.28-.48A.22.22,0,0,0,228.52,216.62Zm.41-2.87a.51.51,0,0,1,.18.08l.42.22a.92.92,0,0,0,.11.21,1.19,1.19,0,0,1,.14.29,6.05,6.05,0,0,1-.63.41.88.88,0,0,1-.38.13l-.08.11a6.64,6.64,0,0,1-1,.6,6.29,6.29,0,0,1-.8.34,4.9,4.9,0,0,0-.63.25l-.6.27a3.61,3.61,0,0,0-.76.48l.92-1.18h-.35l-.39,0-.85-.15a18.08,18.08,0,0,1,1.74-.87,3,3,0,0,0,.69-.34,1.61,1.61,0,0,1,.35-.22.79.79,0,0,1,.25-.48,4.15,4.15,0,0,0,1.51-.11Zm9.73,6.19.34.38a4.24,4.24,0,0,1,.42.64,3.1,3.1,0,0,1,.36.9,4.68,4.68,0,0,1,.1.74,1,1,0,0,1-.17.6,2.47,2.47,0,0,0-.31.69,1.28,1.28,0,0,1-.28.56l-.43.39-1,.49a5.2,5.2,0,0,1-1.22.34q-.84.15-2.25.31a6.61,6.61,0,0,1-2.2,0,10.17,10.17,0,0,1-1.27-.39,4.58,4.58,0,0,1-.77-.38,6.93,6.93,0,0,1-.73-.57,6,6,0,0,0-.59-.87,1.77,1.77,0,0,1-.35-.64q-.13-.39-.46-1.32l-.45-.36a5.07,5.07,0,0,0,.73.08.5.5,0,0,1,.32.08l.27.2q.31.9.42,1.25a2.14,2.14,0,0,0,.28.59l.48.66a3.33,3.33,0,0,0,.49.34,5.15,5.15,0,0,0,.59.25,4.24,4.24,0,0,0,.94.21,6.32,6.32,0,0,0,1.39,0,14.24,14.24,0,0,0,1.65-.27,6.52,6.52,0,0,0,1.13-.32,7,7,0,0,0,.64-.34q.59-.7.88-1a3.83,3.83,0,0,0,.57-.83,3.39,3.39,0,0,0,.36-1,1.63,1.63,0,0,0,0-.66,4.3,4.3,0,0,1-.08-.73Z" transform="translate(-90.15 -48.52)"/><path class="cls-2" d="M263.41,205.52l1.32.11a7.21,7.21,0,0,0,.9,0,1.45,1.45,0,0,1,.66.07,1.74,1.74,0,0,0,.46.14,1.58,1.58,0,0,1,.49.17l.77.43.22.17c.06,0,.07.11.06.21a2,2,0,0,0,0,.49l-.45.25,0,.25h-.29a.47.47,0,0,1-.22-.07q-.13-.07-.49.08a1.13,1.13,0,0,1-.56.13.3.3,0,0,0-.28.07.26.26,0,0,1-.24.08,1.07,1.07,0,0,0-.55.28,3.26,3.26,0,0,1-.7.42,3,3,0,0,0-.57.31,6.75,6.75,0,0,0-.62.49,1.93,1.93,0,0,1-.48.35l-.32.07-.42.42a4,4,0,0,0,.53,0,1.1,1.1,0,0,1,.42,0,5.86,5.86,0,0,0,.7.11l.14.2a1.51,1.51,0,0,1-.36.73l-1,.36a6.26,6.26,0,0,0-1,.5q-.6.36-1,.63t-.94.8l0,.11a1.21,1.21,0,0,0,.31,0,.72.72,0,0,1,.31.06,4.62,4.62,0,0,0,.64.15l.2-.31.2,0,.08-.08a.49.49,0,0,0,.22-.1,1.52,1.52,0,0,1,.59-.11,3.5,3.5,0,0,1,1.06.08,1.7,1.7,0,0,1,.63.21l.15.17-.11.25-.5.21a4.66,4.66,0,0,0-.62.31q-.42.24-1.37.83a.71.71,0,0,0-.2.76l.41.1a.29.29,0,0,0,.2,0l.18-.08,0-.11.15,0a1.65,1.65,0,0,0,.32-.07,1.14,1.14,0,0,1,.5,0,4.84,4.84,0,0,0,.62.06,6.55,6.55,0,0,1,.73.07c.24,0,.38.08.41.13a.23.23,0,0,0,.1.1,1.38,1.38,0,0,0,0,.22.16.16,0,0,1-.08.15,1.08,1.08,0,0,0-.24.29l-.78.15q-.48.1-.84.14a6.27,6.27,0,0,0-.77.14q-.41.1-1,.32a1.54,1.54,0,0,0-.08.2q0,.09-.14.69t-.18.91q-.07.31-.24.9,1.18.34,2.38.56a3,3,0,0,0,.18-.31,9.57,9.57,0,0,0,.31-.92q.24-.78.1-1a3.18,3.18,0,0,1-.28-.55l.08-.17.35,0c.1,0,.22.08.36.24a1.49,1.49,0,0,0,.36.32.94.94,0,0,1,.25.2l.41.42.17.36a15.15,15.15,0,0,0-.78,1.79l.34.08a5,5,0,0,1,.69.27q.55.24,1.55.6a17.25,17.25,0,0,0,2.16.62,2.81,2.81,0,0,1,1.39.55.77.77,0,0,0,.5.32.62.62,0,0,1,.43.24,7.53,7.53,0,0,0,.64.66l.2.25a.36.36,0,0,1,.06.21,1.37,1.37,0,0,0,.22.5c.15.25.2.43.15.55a.56.56,0,0,0,0,.35c0,.12.07.37.13.74,0,0-.11,0-.27,0s-.37-.08-.63-.15l.28.31q-.56-.31-1-.49a18.41,18.41,0,0,1-2-1.26,52.86,52.86,0,0,0-5.5-3l-.34.48a2.6,2.6,0,0,1-.41.43q-.29.27-1,1c-.26.13-.47.22-.62.28a.56.56,0,0,1-.31.06l-.28-.08,0-.14-.17.06-.08-.08.53-.56a3.83,3.83,0,0,0,.45-.57q.25-.38.9-1.41l-1.39-.53a1.68,1.68,0,0,0-.53-.15.69.69,0,0,1-.24,0q-.08.17-.38.64a3.57,3.57,0,0,1-.62.77,3.49,3.49,0,0,0-.43.45c-.08.1-.2.25-.36.43l-.41.34a1,1,0,0,1-.35.21,2.42,2.42,0,0,0-.48.25,2,2,0,0,1-1,.2h-1.3a1.62,1.62,0,0,1-.88-.21,3.07,3.07,0,0,0-.8-.36,2.53,2.53,0,0,1-.84-.43l-.8-.69c-.11-.24-.21-.44-.29-.6a4.66,4.66,0,0,1-.29-1,3.37,3.37,0,0,1-.14-.9,1.18,1.18,0,0,1,.11-.35l.45-.31a3,3,0,0,1,1.18-.15q1,0,2.77.14t2.49.25l1.43.18.14-.11a8.21,8.21,0,0,0,.31-2q-3.16,1-3.19,1a.18.18,0,0,1-.11.08c-.06,0-.09,0-.1,0s0,0-.11,0l-.32.15-.2-.34a.8.8,0,0,0,.06-.42l.17-.1a.29.29,0,0,1,.2,0,.75.75,0,0,0,.36-.08,2.56,2.56,0,0,0,.57-.39l1.16-1,1.65-1.65a1.34,1.34,0,0,0-.64.18q-.45.21-1.51.6a8.81,8.81,0,0,1-1.46.45,1.12,1.12,0,0,1,0-1l.24-.1a1.35,1.35,0,0,0,.31-.24l.69-.64q.73-.84,1-1.13a1.75,1.75,0,0,0,.39-.45l.21-.43H259s-.34,0-1,.15a10.15,10.15,0,0,1-1.37.18,4,4,0,0,1-.63,0,3.46,3.46,0,0,1-.46-.11l.06-.14,1.37-.42q.56-.17,3.42-1.48l.25-.36a.6.6,0,0,0,.53-.14,6.26,6.26,0,0,1,.56-.59c.13-.11.19-.18.17-.2a.16.16,0,0,1,0-.11l.17-.11v-.14a.12.12,0,0,1,.07-.1.72.72,0,0,0,.18-.21l.11,0-.06-.11.31-.25q.7-1,1.32-2h-.11q.11-.22.25-.56l-.31-.36ZM252,220.08a4.43,4.43,0,0,1-.57.06.36.36,0,0,0-.27.08l-.28.25a1.93,1.93,0,0,1,0,.36,1,1,0,0,0,.11.49,6,6,0,0,0,.39.78,3.68,3.68,0,0,0,.46.66l.6.62.55.27a4.39,4.39,0,0,0,1,.25,10.52,10.52,0,0,0,1.4.15,2.63,2.63,0,0,0,1.09-.14,2,2,0,0,0,.6-.35l.48-.46q.53-.59.76-.8a1.7,1.7,0,0,0,.34-.42l.34-.63c-.34-.08-.61-.14-.83-.21a6.84,6.84,0,0,0-1.11-.18,16.07,16.07,0,0,1-1.64-.27q-.85-.18-1.53-.27L252,220.1Zm.62-11.31.18,0h.45a6.43,6.43,0,0,1,1.06.08,2,2,0,0,1,.92.29,5.34,5.34,0,0,0,.6.42l.22-.17a1,1,0,0,1,.2.42,2.55,2.55,0,0,0,.14.42.49.49,0,0,0-.22.45H256l-.17.2-.53-.08a.13.13,0,0,1-.1.07h-.35a1.66,1.66,0,0,1-.5-.1,1.8,1.8,0,0,1-.42-.22c-.13-.09-.33-.25-.59-.48l-.92-1.2Zm6.55,5.49-.11.28-.15-.06s-.19.06-.43.24-.52.4-.84.66l-.45.42a1,1,0,0,0,.25,0,5.8,5.8,0,0,0,.64-.28q.53-.25,1.65-.84l.06-.14-.48-.25Zm.62,2.52a9.85,9.85,0,0,1-1.74,1.34l-.28.25,2-.87v-.7Z" transform="translate(-90.15 -48.52)"/><path class="cls-2" d="M295.92,207.25l.31.31a1.13,1.13,0,0,1,.17.22.77.77,0,0,1,.1.35.44.44,0,0,1-.15.36,1.45,1.45,0,0,0-.46.94,2.19,2.19,0,0,1-.36.84,3.29,3.29,0,0,0-.45,1.18,9.21,9.21,0,0,1-.56,1.72q-.44,1.05-.66,1.5a1.79,1.79,0,0,0-.21.5l0,.14a5.71,5.71,0,0,1,.59-.2q.31-.08,1.83-.63a16.46,16.46,0,0,1,2.55-.73,5.2,5.2,0,0,1,1.58-.1,3.36,3.36,0,0,1,.87.22,2.16,2.16,0,0,0,.62.18.84.84,0,0,1,.45.17l.36.29a1.08,1.08,0,0,0,.2.73,1.17,1.17,0,0,1-.15.36.78.78,0,0,0-.13.28,2.29,2.29,0,0,1-.24.5,1.85,1.85,0,0,0-.24.66q-.06.35-.56,2.55a30.46,30.46,0,0,1-.8,3,9.86,9.86,0,0,1-.64,1.44,8.6,8.6,0,0,1-.52.85q-.17.22-.59.7a1.73,1.73,0,0,1-.87.48l-.14.17-.2.06a.54.54,0,0,1-.1-.14.91.91,0,0,0-.2-.22q-.15-.14-.77-.9a11.54,11.54,0,0,1-1.19-1.82q-.57-1.06-.71-1.4l.64.64q.5.34.73.52a1.56,1.56,0,0,0,.59.28,2.26,2.26,0,0,0,.53.1h.42a7.49,7.49,0,0,1,.48-.77,5.63,5.63,0,0,0,.5-1,14,14,0,0,0,.63-2,17.12,17.12,0,0,0,.45-2.51,6.11,6.11,0,0,0,.06-1.47l-.15-.48-.42-.11a3.39,3.39,0,0,0-1,0,10.72,10.72,0,0,0-1.67.34,10.52,10.52,0,0,0-1.47.5,5.53,5.53,0,0,1-1,.35,2.05,2.05,0,0,0-.57.2l-.43.24c-.06.24-.09.42-.11.53a3.09,3.09,0,0,0,0,.62q0,.45,0,1.61a11.13,11.13,0,0,1-.13,1.65c-.07.33-.13.61-.18.85a8.86,8.86,0,0,1-.29,1l-.25.7a1.45,1.45,0,0,1-.15.28l-.14,0a1.15,1.15,0,0,1-.24-.2c0-.06-.08-.08-.1-.07h-.08a3.05,3.05,0,0,1-.92-1.88l-.77.63a5.22,5.22,0,0,1-.7.45l-.73.42a5.87,5.87,0,0,1-.56.31.64.64,0,0,1-.36.1l-.27-.06-.27-.34a.26.26,0,0,1-.06-.21.46.46,0,0,0-.1-.29c-.07-.11-.11-.19-.1-.24l0-.24.42-.28a6.7,6.7,0,0,0-.45-1.43.16.16,0,0,1,0-.11s0-.07-.06-.14a4.76,4.76,0,0,1-.34-.8q-.25-.69-.62-1.54a3,3,0,0,0-.59-1,2.55,2.55,0,0,1-.45-.45l-.48-.22.24-.13a1,1,0,0,1,.43,0,3.39,3.39,0,0,1,.63.17,1.28,1.28,0,0,0,.59.08,3.17,3.17,0,0,0,1-.49,8.84,8.84,0,0,1,1.81-.81q1.05-.35,1.32-.48a5.41,5.41,0,0,0,.57-.32,1.41,1.41,0,0,0,.57.11,3,3,0,0,0,.48,0,1.47,1.47,0,0,1,.41,0c.17,0,.27,0,.31,0a.5.5,0,0,1,.07-.24.34.34,0,0,0,.06-.2q0-.15.43-1.72t.57-2.28q.15-.71.27-1.12a7.91,7.91,0,0,0,.2-1.11c-.26-.26-.44-.45-.53-.56a.45.45,0,0,0-.28-.18l-.36-.07,0-.14.62,0a.58.58,0,0,0,.28,0l.2-.07Q294.94,207.06,295.92,207.25Zm-7.5.9.22-.14.81.31.11-.08a14.57,14.57,0,0,0,1.34.62l.22.22.34.25v.39a3,3,0,0,1-.48.14.65.65,0,0,0-.35.22l-.66.67c-.22.28-.45.55-.67.81a4.43,4.43,0,0,0-.9.73,8.15,8.15,0,0,1-1,1.12l-.17.11-.36.45-.62.56-.08.11a5.33,5.33,0,0,0-.62.48l-.25.36a.32.32,0,0,0-.22.06.6.6,0,0,1-.21.11.74.74,0,0,1-.24.06l.38-.48a10.37,10.37,0,0,0,.67-1.26q.52-1.06,1-2.35t.77-1.86a2.51,2.51,0,0,0,.28-.73,3.16,3.16,0,0,1,0-.38l-.39-.17-.06-.22h.11l.11-.08a.49.49,0,0,0,.53-.17Zm2,7.76a2.87,2.87,0,0,0-.7.14,4.82,4.82,0,0,0-1.12.42,5.19,5.19,0,0,1-.9.39,8.79,8.79,0,0,0-1.27.59l.59,1.23h.08v-.08a.14.14,0,0,0,.1,0,4.07,4.07,0,0,0,.59-.17,3.34,3.34,0,0,0,.81-.36.69.69,0,0,1,.59-.11,1.06,1.06,0,0,0,.59,0,1,1,0,0,1,.48,0l.46.07a4.64,4.64,0,0,0,0-.84c0-.37-.06-.63-.06-.78a1.81,1.81,0,0,0-.06-.45A.29.29,0,0,1,290.42,215.9Zm-3.29,3q.39,1,.81,2l.17-.08a7.67,7.67,0,0,1,.5-.87.57.57,0,0,0,.15-.36,2,2,0,0,1,0-.39,7.78,7.78,0,0,1-1-.14l-.53-.11Zm3.39,0s-.08,0-.13,0a1.42,1.42,0,0,1-.27.18,1.54,1.54,0,0,1-.42.69,3.77,3.77,0,0,0-.52.55,5.27,5.27,0,0,1-.5.56,2.31,2.31,0,0,0-.46.7l.14.39,2.24-1.15.11-1.93A.49.49,0,0,1,290.51,218.87Zm4.87-1.22a1.09,1.09,0,0,0,.29,0,1.3,1.3,0,0,1,.48,0,1.84,1.84,0,0,1,.57.25,1.23,1.23,0,0,0,.53.21.57.57,0,0,1,.34.11,1.37,1.37,0,0,0,.28.2c0,.09.09.25.15.48a2.73,2.73,0,0,1,.1.76l-.17.11-.36.5-.43.1c-.1,0-.28,0-.53-.18s-.48-.3-.69-.45l-.42-.7a5.78,5.78,0,0,1-1.37-.9l.11-.11.87-.45Z" transform="translate(-90.15 -48.52)"/><path class="cls-2" d="M324.62,214.67l.35.06a1.86,1.86,0,0,1,.52.2l.22.25h.84l.22-.25.6-.06a2.53,2.53,0,0,1,.73.08,1.62,1.62,0,0,1,.67.25,1.43,1.43,0,0,0,.43.25l.17.45a24.38,24.38,0,0,0-2.86,2.49.24.24,0,0,0,.11.07l2.23.1a33.15,33.15,0,0,1,3.56.29q1.39.21,2.48.49a8.71,8.71,0,0,1,1.43.45l.67.36a1.53,1.53,0,0,0,.34.31,1,1,0,0,1,.29.76.37.37,0,0,0,0,.22.58.58,0,0,0,.14.24c.07.08.1.14.08.18a.57.57,0,0,0,0,.22,2.2,2.2,0,0,1-.53.15,5,5,0,0,1-1.2,0,26.45,26.45,0,0,1-4-1.08q-3.19-1-4.27-1.22a20.86,20.86,0,0,1-2.17-.55q-.9.92-1.71,1.88l-1.4,1.34.84.64q1-.48,1.64-.7t1.12-.48a7.29,7.29,0,0,1,1.58-.48,3,3,0,0,1,1.3-.11,1,1,0,0,0,.49.1,2,2,0,0,1,.55.06,1.33,1.33,0,0,1,.43.17l.36.24a2.23,2.23,0,0,0,.49.5c.12.08.18.15.17.24a1.56,1.56,0,0,0,0,.35l-.36.2-.17.22-1.09.9-.34.39.36.11a1.9,1.9,0,0,0,.29.46.36.36,0,0,1,.11.29.89.89,0,0,1-.06.27,1.24,1.24,0,0,1-.18.27,1.37,1.37,0,0,1-.35.17,16.53,16.53,0,0,1-2.3.15,14.46,14.46,0,0,1-2.35,0,2.47,2.47,0,0,0-.52-.1,5.15,5.15,0,0,1-.78-.15l-.08-.31-.81-.76-1-1.12-.7-.62-1.29.71a12.55,12.55,0,0,1-1.34.59,9.17,9.17,0,0,1-1.58.46,8.13,8.13,0,0,1-1.2.15,7,7,0,0,1-.78,0,1,1,0,0,1-.5-.17l-.52-.39.69.18a2,2,0,0,0,.6.07,4.05,4.05,0,0,0,1-.15,11.06,11.06,0,0,0,1.26-.42,9,9,0,0,0,1.34-.67,4.13,4.13,0,0,0,.88-.64,5.22,5.22,0,0,1,.63-.57.82.82,0,0,1-.45-.76.81.81,0,0,0,.27,0,.09.09,0,0,1,.11,0,.42.42,0,0,0,.15.11l-.11.14.56,0a.7.7,0,0,0,.45-.25,10.89,10.89,0,0,1,.9-.76,17.62,17.62,0,0,0,1.74-2q-.7-.2-1.12-.35a.7.7,0,0,0-.74.13,1.94,1.94,0,0,1-.66.39,1.64,1.64,0,0,0-.48.22.53.53,0,0,1-.27.13.9.9,0,0,0-.32.13l-.28-.2q.06-.28.07-.38a1.58,1.58,0,0,1,.06-.24,2.87,2.87,0,0,0,.07-.29,1.41,1.41,0,0,1,.08-.29.65.65,0,0,0,.06-.22.45.45,0,0,1,.06-.2l.34.17,1.06-1.06,1.12-1,.62-.67-.45-.25.08-.17.42-.08.08-.17a.68.68,0,0,0,.67-.08A.63.63,0,0,0,324.62,214.67ZM316.33,211a2.39,2.39,0,0,0,.48.35,5.69,5.69,0,0,1,.55.36,6.63,6.63,0,0,1,.6.55,2.36,2.36,0,0,0,.27.45.51.51,0,0,1,.11.31,1.2,1.2,0,0,0,.1.39,1.14,1.14,0,0,1,.08.45c0,.17,0,.31,0,.42a1.77,1.77,0,0,1,0,.32c0,.1,0,.28,0,.52-.2.19-.35.33-.43.42a.46.46,0,0,1-.32.15,1.51,1.51,0,0,0-.39.08.77.77,0,0,1-.55-.08,3.09,3.09,0,0,1-.49-.25,2.36,2.36,0,0,1-.31-.27q-.14-.25-.2-.38a2.27,2.27,0,0,1,0-.7,9.24,9.24,0,0,1,.21-1.54,2,2,0,0,0,0-1.25c-.12-.19-.18-.31-.17-.36a1.14,1.14,0,0,0,0-.2A1.06,1.06,0,0,1,316.33,211Zm13.37-.8a7.36,7.36,0,0,1,1.09.08,4.64,4.64,0,0,1,1.13.25q.36.15.87.32a2.93,2.93,0,0,0,.49.49.75.75,0,0,1,.27.31,3.26,3.26,0,0,0,.36.55l-.17.28-.41.25a.84.84,0,0,1-.5,0,4.52,4.52,0,0,0-.92,0,3.26,3.26,0,0,0-1,.24,3.46,3.46,0,0,1-.88.25,4.7,4.7,0,0,0-1.09.34,5.38,5.38,0,0,1-1.09.35l-1.19.22,1.62-1a15.39,15.39,0,0,0,1.67-1.11q.29-.27.71-.57a3.56,3.56,0,0,1-.62-.22,1.75,1.75,0,0,0-.69-.13,2.78,2.78,0,0,0-.88.11,7.11,7.11,0,0,1-1,.21,11.92,11.92,0,0,0-1.79.48q-1.2.39-2.18.8a9.61,9.61,0,0,1-1.57.53,4.45,4.45,0,0,1-1.16.1,2.31,2.31,0,0,0-.76,0,.35.35,0,0,1-.27,0,1,1,0,0,0-.25-.07l0-.08.31-.11.11-.36a9.92,9.92,0,0,1,1-.45l2-.66q1.53-.49,2.62-.77c.73-.19,1.29-.31,1.69-.38s.95-.19,1.64-.38Zm-8.08-4a1.18,1.18,0,0,0,.39-.1c.09,0,.2,0,.31.1a1,1,0,0,0,.63.2,15.27,15.27,0,0,1,1.54.22,5.47,5.47,0,0,1,1.32.34l.52.31a1,1,0,0,0,.22.25.6.6,0,0,1,.15.39,2,2,0,0,1-.15.85,2.33,2.33,0,0,1-.45.81,2.77,2.77,0,0,0-.34.41c-.06.09-.13.23-.22.42a2.93,2.93,0,0,1-.49.06,3.1,3.1,0,0,1-.66-.13,1.9,1.9,0,0,1-.76-.36,1,1,0,0,0-.63-.25.87.87,0,0,1-.48-.11l-.32-.24.34-.08.17-.17a4.39,4.39,0,0,0-.34-1.06l-.64-.34a1.19,1.19,0,0,1-.5-1.06,1.08,1.08,0,0,1,.22-.25.16.16,0,0,0,.08-.13v-.18Zm4.14,10.3a9.41,9.41,0,0,0-2.74,1.54v.08l1.54.14a14.82,14.82,0,0,0,1.29-1.74Zm-1.85,7.25a12.37,12.37,0,0,0,1.62,1.79l.67-.17a.84.84,0,0,0,.36-.18l.45-.38.56-1.82-.48-.11A17.68,17.68,0,0,0,323.92,223.77Z" transform="translate(-90.15 -48.52)"/><path class="cls-2" d="M363.26,209.27a2.1,2.1,0,0,1,.5.06,3.18,3.18,0,0,1,.64.28l.31.45a2.71,2.71,0,0,1-.73,1q-.81.22-1.41.42t-1.39.39q-.78.2-1.5.45t-1.26.39a10.4,10.4,0,0,0-1.5.56l.42.36.25.5a14.64,14.64,0,0,0-.76,2.27l3.28-1.51a6.19,6.19,0,0,1-.88-.49,4.27,4.27,0,0,0-.76-.42l-.55-.18.81-.06a3.26,3.26,0,0,1,.87.08,6.93,6.93,0,0,0,1.43.1,9.64,9.64,0,0,1,1.54.08,2.08,2.08,0,0,1,.87.25,3.2,3.2,0,0,0,.39.27.31.31,0,0,0,0,.14,1.32,1.32,0,0,0,.1.35,1,1,0,0,1,.08.41,1.44,1.44,0,0,1-.13.39.69.69,0,0,0-.24.15q-.1.1-.83-.08a9.29,9.29,0,0,1-1-.29,7.07,7.07,0,0,0-.67-.22,15.28,15.28,0,0,1-1.5.8,6.32,6.32,0,0,0-1.09.63q-.6.42-1.55,1a4,4,0,0,1-1.46.64,7.49,7.49,0,0,1-.81.06h-1.2l-.08.08c0,.36,0,.64.06.85a7.06,7.06,0,0,1-.11,1.29,12.59,12.59,0,0,1-.39,1.81q-.25.84-.36,1.43a2.9,2.9,0,0,1-.21.76,2,2,0,0,0-.18.56h-.42a1.76,1.76,0,0,1-.56-.29,6.75,6.75,0,0,1-.87-.7l-.08-.14L350,224a.31.31,0,0,1,0-.1.3.3,0,0,0,0-.17.3.3,0,0,1,0-.28.59.59,0,0,0,0-.46,4,4,0,0,1-.18-.83q-.07-.52-.21-1.11a3.77,3.77,0,0,1-.11-1.08,4,4,0,0,0-.11-1.11q-.14-.62-.31-1.27a3.27,3.27,0,0,0-.31-.87q-.14-.21-.36-.6l-.39-.34v0l.64,0a2.46,2.46,0,0,1,.85.28,4,4,0,0,1,.73.39l.29.25v.25a6.75,6.75,0,0,0,.2.87,8.47,8.47,0,0,1,.25,1.48q.06.73.15,1.29a2.39,2.39,0,0,0,.2.71q.1.15.24.43a25.86,25.86,0,0,0,1.26-3.22l-.2-.08.5,0,.34-.34,1.12-.53a8.62,8.62,0,0,0,.53-1.2,11.9,11.9,0,0,0,.41-1.27,3.88,3.88,0,0,1,.25-.77,1.67,1.67,0,0,0,.13-.73.32.32,0,0,1-.18.1,7.16,7.16,0,0,0-.77.28,5.58,5.58,0,0,1-1.11.34,2.24,2.24,0,0,1-.69,0,3.8,3.8,0,0,0-.62,0l0-.11q3.42-1.65,4.48-2.24t3.75-1.93l0-.11.59-.49a.36.36,0,0,1,.29-.13.45.45,0,0,0,.25,0,1.83,1.83,0,0,1,.49,0A6.25,6.25,0,0,0,363.26,209.27Zm-11.68-.78a1.44,1.44,0,0,1,.53.11,5,5,0,0,1,.49.22c.14.08.39.19.74.34a1.2,1.2,0,0,0,.29.27.6.6,0,0,1,.22.32.66.66,0,0,1,.07.35,2.63,2.63,0,0,1-.11.29h-.28a2.53,2.53,0,0,0-.57.17,9.93,9.93,0,0,0-1.22.57,2.8,2.8,0,0,1-1.23.41,11,11,0,0,0-1.2.08l-.08-.11a1.7,1.7,0,0,0,.49-.76,2.44,2.44,0,0,0,.18-.8,2.41,2.41,0,0,1,.18-.8,2.83,2.83,0,0,0,.17-.46l0-.32a6.33,6.33,0,0,0,1,.08l.08-.17Zm3,11.63a.83.83,0,0,1,.27.21c.13.13.36.34.7.62a1.8,1.8,0,0,0,.22.39,1.3,1.3,0,0,1,.2.46q.08.32.14.67a3.19,3.19,0,0,1,0,.8,1.5,1.5,0,0,1-.21.7q-.17.25-.5.87a3.41,3.41,0,0,1-.38.29.6.6,0,0,1-.42.06l-.41-.08a1.21,1.21,0,0,1-.31-.15l-.08-.34a.37.37,0,0,1,0-.17.47.47,0,0,1,.07-.14,2.26,2.26,0,0,0,.64-.42l.27-.8a3.55,3.55,0,0,0,.11-1,5.56,5.56,0,0,0-.07-1.11,1.73,1.73,0,0,0-.18-.59l-.24-.36Zm4.54-12.67a1.2,1.2,0,0,1,.45.08l.66.25a1.63,1.63,0,0,0,.36.36.68.68,0,0,1,.21.5,1,1,0,0,1,0,.53,1.33,1.33,0,0,0-.14.36,5.81,5.81,0,0,0-.67,0,3,3,0,0,1-.9-.17,3.2,3.2,0,0,0-1-.17.69.69,0,0,1-.43-.07.44.44,0,0,0-.25-.1,1.32,1.32,0,0,1-.36-.1,1.71,1.71,0,0,1-.35-.18.9.9,0,0,0-.42-.13,6.89,6.89,0,0,1-.92-.2A3.59,3.59,0,0,0,355,208l.08-.14a.67.67,0,0,0,.2.18.89.89,0,0,0,.34,0,1.67,1.67,0,0,0,.71-.25,2.34,2.34,0,0,1,.9-.29l1.13-.13ZM357,219.26l.62,1A9.25,9.25,0,0,1,358,219c-.06.39-.09.67-.11.84a5.27,5.27,0,0,0,0,.57,1,1,0,0,0,.21.62,2.79,2.79,0,0,1,.36.83,6.31,6.31,0,0,1,.21,1.06,1.51,1.51,0,0,1,0,.7,2.61,2.61,0,0,0-.17.5,1.25,1.25,0,0,0-.45,0l-.08-.08-.17-.11-.5-.52a.71.71,0,0,1-.25-.67.65.65,0,0,0,0-.5.49.49,0,0,1,0-.43A2.81,2.81,0,0,0,357,221a3.72,3.72,0,0,0-.13-1c-.07-.24-.18-.6-.31-1.06Zm1.74-1.62a.34.34,0,0,1,.21,0,.87.87,0,0,0,.28,0,1,1,0,0,1,.25,0,.21.21,0,0,0,.15,0l.56.5q.7,1.23,1.33,2.2t.8,1.18a.87.87,0,0,1,.2.43l.41.32a2.22,2.22,0,0,0,.76.27,7.88,7.88,0,0,0,1.75.13,6.64,6.64,0,0,1,1.71.14,1.78,1.78,0,0,1,.73.32,3.35,3.35,0,0,0,.45.36l.56,1.18-.32.25-.21.15a.32.32,0,0,1-.27,0,.39.39,0,0,0-.35.13q-.2.17-1.2,0t-1.9-.28a6,6,0,0,1-1.6-.49l-1-.5a4,4,0,0,1-.67-.48l-.77-1a5.57,5.57,0,0,1-.6-1.16,6.68,6.68,0,0,1-.45-1.57,9.74,9.74,0,0,0-.2-1c-.06-.2-.12-.46-.2-.8l-.42-.25-.08-.14S358.67,217.66,358.72,217.64Z" transform="translate(-90.15 -48.52)"/><path class="cls-2" d="M385.44,207.81a4.77,4.77,0,0,0,.41.45.64.64,0,0,1,.18.28.63.63,0,0,1,0,.42,3.5,3.5,0,0,1-.35.63,3.92,3.92,0,0,0-.41.78,2.8,2.8,0,0,1-.29.6,1.08,1.08,0,0,0-.18.48,5,5,0,0,1-.43,1.09,8.11,8.11,0,0,1-.66,1.18,2.38,2.38,0,0,0-.35.62,2.07,2.07,0,0,1-.35.59,2,2,0,0,0-.35.59.9.9,0,0,1-.24.39,2.19,2.19,0,0,0-.29.34c-.09.13-.28.42-.56.87q-.67.56-1,.78a1.64,1.64,0,0,1-.71.28,11.32,11.32,0,0,0-1.15.25l-.17-.17a2.58,2.58,0,0,0,.2-.64l.11,0,.08-.22.2-.17q2-3.39,2.69-4.72t1.4-2.63a18.07,18.07,0,0,1,.88-1.6q.21-.29.52-.8A6.43,6.43,0,0,0,385.44,207.81Zm5.74-3.15a.52.52,0,0,1,.34.06l.25.18,0,.11a1,1,0,0,1-.07.2,2.75,2.75,0,0,0,0,.69,3.51,3.51,0,0,1-.1.94,3.65,3.65,0,0,0-.13.8q0,.46-.17,1.36a7.31,7.31,0,0,1-.27,1.23,1.37,1.37,0,0,0-.11.55,4.27,4.27,0,0,1-.07.77l2.44-1.23-.18-.13a1.14,1.14,0,0,0-.32-.08,5.68,5.68,0,0,1-.76-.21l.06-.06h.22a.87.87,0,0,0,.29-.07,1,1,0,0,1,.55,0,5.63,5.63,0,0,0,1.36,0,2.84,2.84,0,0,1,1.13,0,1,1,0,0,1,.22.21v.11l-.29.29a4,4,0,0,1-.74.45,7.86,7.86,0,0,1-1.22.52,5.8,5.8,0,0,0-1,.42,5.33,5.33,0,0,1-.76.35q-.35.13-1.11.49c-.15.49-.25.85-.31,1.09a5.68,5.68,0,0,1-.31.9,5,5,0,0,0-.29.87q-.07.34-.18,1a36.76,36.76,0,0,1,5-1.72,13.94,13.94,0,0,1,2.28-.29q1,0,1.6,0a3.31,3.31,0,0,1,.85.11l.62.22.5.48-.06.53a1.85,1.85,0,0,0-.31.21,1,1,0,0,1-.38.17.51.51,0,0,1-.49-.13.87.87,0,0,0-.71-.13,2,2,0,0,0-.81.28,2.84,2.84,0,0,1-.74.34,4.43,4.43,0,0,0-.77.31,5.74,5.74,0,0,1-.7.31,2.24,2.24,0,0,1-.55.14,1.11,1.11,0,0,0-.34.07l-.42.17-.06-.17q1-.78,2-1.51v-.06l-1.27.1q-.49,0-1.36.17a10,10,0,0,0-2.14.63q-1.27.5-1.95.81a.55.55,0,0,1-.14.27.34.34,0,0,0-.1.31.26.26,0,0,1-.1.27,4.63,4.63,0,0,0-.49,1.15,6.82,6.82,0,0,1-.53,1.27q-.18.27-.46.74h-.11s-.09,0-.15-.1L387,221l-.17-.28c-.21-.19-.36-.34-.46-.45a1,1,0,0,0-.48-.25,1.67,1.67,0,0,1-.49-.2l-.5-.34a1.9,1.9,0,0,0,0,.28.71.71,0,0,0,.14.25,3.25,3.25,0,0,1,.31.91,10.56,10.56,0,0,1,.25,1.41,1.78,1.78,0,0,1,0,.84,4.18,4.18,0,0,0-.21.42l-.2.14-.34-.34-.81-.48a3.46,3.46,0,0,0-.48-.59.3.3,0,0,1-.11-.29,2,2,0,0,0,0-.57,2.55,2.55,0,0,0-.17-.6,1,1,0,0,1-.08-.49,7.83,7.83,0,0,0-.17-1.29,8.84,8.84,0,0,1-.17-1.11c0-.07,0-.14,0-.24l1.79.84.22.39,3.47-2q.09-.45.22-1t.21-1a4.47,4.47,0,0,1,.15-.66,4.19,4.19,0,0,0,.14-.81l-.25.08a2.08,2.08,0,0,0-.36.15l-.84.46-.28.31h-.57a1,1,0,0,1-.34-.08,1,1,0,0,0-.28-.08,2.6,2.6,0,0,1-.41-.1l1-.59q.35-.2.9-.43a4.69,4.69,0,0,0,.84-.45q.29-.21.88-.55.25-1.51.39-2.07a5.13,5.13,0,0,0,.13-1.32,6.2,6.2,0,0,1,.14-1.46,3.25,3.25,0,0,0,.11-1,5.88,5.88,0,0,1,0-.8,1.29,1.29,0,0,1-.35-.08.4.4,0,0,0-.25,0,.73.73,0,0,1-.34,0l-.63-.2.17,0,.14-.22a9.84,9.84,0,0,0,1.51-.36Q390.92,204.68,391.18,204.66Zm-3.11,13.4a7.17,7.17,0,0,0-.84.32l-.71.39q-.46.27-.83.43l-.17.17a1.46,1.46,0,0,1,.43.22,2.08,2.08,0,0,0,.43.25,1.83,1.83,0,0,1,.42.25,1,1,0,0,0,.34.2q.28-.45.43-.64a1.25,1.25,0,0,0,.22-.5q.07-.31.27-1.06Zm3.6-1.15a2.11,2.11,0,0,0,.43.14,3,3,0,0,1,.46.14,2,2,0,0,1,.43.25l.17.48-.06.17.17.5.76.2.14-.06a5.49,5.49,0,0,0,.91-.06,1.76,1.76,0,0,1,1.16.14.86.86,0,0,0,.39.22l.08.08-.27.2a3.79,3.79,0,0,1-.49.31,3.17,3.17,0,0,1-.81.28q-.5.11-1.54.45l-.15.13a.76.76,0,0,0,0,.35,1.3,1.3,0,0,0,.08.5,1,1,0,0,1,.06.49.82.82,0,0,1-.06.31s0,.05,0,.13l.07.07s0,.07,0,.13,0,.13.06.22a1,1,0,0,1,.08.53q0,.39,0,.66a1.21,1.21,0,0,0,.13.49,1.83,1.83,0,0,1,.08.81q0,.59-.07,1.32a8.53,8.53,0,0,1-.11,1.08,2.18,2.18,0,0,1-.15.52,6.27,6.27,0,0,0-.25.64l-.34.2a2,2,0,0,0-.67-.36q-.17-.73-.24-1.06a3.86,3.86,0,0,1-.07-.78q0-.45,0-1a11.41,11.41,0,0,1,0-1.3,7.24,7.24,0,0,0-.07-1.4q-.1-.6-.18-1.95a8.76,8.76,0,0,0-1.19.32.89.89,0,0,1-.74,0,1.28,1.28,0,0,0-.52-.17,2.39,2.39,0,0,1-.46-.06l.32-.2a4.44,4.44,0,0,1,.59-.28q.46-.2.84-.39l1.08-.56a18.61,18.61,0,0,0-.42-2.16l-.28-.11a.66.66,0,0,1-.17-.11.15.15,0,0,0-.14,0h-.17l.14-.14.08-.2.64-.25A2.74,2.74,0,0,1,391.66,216.91Z" transform="translate(-90.15 -48.52)"/><path class="cls-2" d="M424.19,206.89a1,1,0,0,0,.28,0l.2,0,.64.39-.08.17-.39.28q-.25.31-.45.5a5.89,5.89,0,0,0-.59.78q-.39.59-.66,1.08t-.64,1.06a14.87,14.87,0,0,0-1,2,7.88,7.88,0,0,1-1,1.89,17.93,17.93,0,0,0-1.23,1.67l-.48.22.2.21a.86.86,0,0,1,.11.22,1.52,1.52,0,0,0,.21.36.88.88,0,0,1,.15.53,9.82,9.82,0,0,0,.11,1.13,1.62,1.62,0,0,0,.45.08,1.15,1.15,0,0,1,.39.08l.78.34v-.53h.08l.31.62.31.22,1.12,1.23-.31.31a3.33,3.33,0,0,1-1.85-.36l-.32-.53a1.28,1.28,0,0,0-.31-.34c-.14-.11-.37-.33-.69-.64q0,.06-.1.85a9.84,9.84,0,0,1-.24,1.32,1.53,1.53,0,0,1-.41.76,8.81,8.81,0,0,0-.83.94,3.27,3.27,0,0,0-.55.35.62.62,0,0,1-.45.14,1,1,0,0,1-.56-.25l-.94-.71a4.45,4.45,0,0,1-1.18-1.57l.77.76a4.88,4.88,0,0,0,.64.5,1.34,1.34,0,0,0,.49.25h.28q.25-.45.34-.63a2.43,2.43,0,0,1,.29-.45,2.9,2.9,0,0,0,.41-.87,9,9,0,0,0,.35-2.07l-.07-.15q-3,1.79-4.16,2.45a2.82,2.82,0,0,1-1.89.49,3,3,0,0,1-1-.42l-1.05-.78-.17-.31.14.06.17-.14.31.31a4.33,4.33,0,0,1,1,.39,1,1,0,0,0,.88,0q.56-.22,1.69-.83a14.59,14.59,0,0,1,2-.9q.84-.29,2.13-.85c0-.17,0-.28,0-.35a.33.33,0,0,0-.1-.21,2.83,2.83,0,0,1-.29-.5.64.64,0,0,1-.21-.13s-.19-.06-.42,0a4.5,4.5,0,0,0-1,.28,3.78,3.78,0,0,0-.81.35,1.49,1.49,0,0,1-.36.21,3.43,3.43,0,0,1-1-.59,3.78,3.78,0,0,0-.21-.45c0-.07,0-.2.07-.36a3.44,3.44,0,0,0,.14-1.29q0-1,0-1.26a1.11,1.11,0,0,1,.14-.42,1.27,1.27,0,0,0,.46-.14.17.17,0,0,1,.24,0,.68.68,0,0,0,.31.17l.14.48a.76.76,0,0,1-.15.2s-.06.24,0,.62,0,1,.06,1.93l.9-.24a1.46,1.46,0,0,1,.45-.06,2.54,2.54,0,0,0,.45,0,3.7,3.7,0,0,1-.39-.39.66.66,0,0,1-.1-.45,1.61,1.61,0,0,0,0-.5q-.06-.2-.14-.67l.17,0a1.54,1.54,0,0,0,.14-.36,7.29,7.29,0,0,0,.06-.73q0-.59.11-2.1a13.45,13.45,0,0,1-1.6.5,6.63,6.63,0,0,0-1.47.57,3.86,3.86,0,0,1-1,.42.37.37,0,0,0-.24.06.7.7,0,0,1-.48,0,3.35,3.35,0,0,0-.56-.11l-.53-.07v-.2l.35-.18,1.26-.66q1.11-.59,2.46-1.19a8.62,8.62,0,0,1,1.67-.63.56.56,0,0,0,.41-.15.26.26,0,0,1,.24-.11c.09,0,.15,0,.18,0l.1-.07.29.1a2,2,0,0,0,.52,0,1,1,0,0,1,.63.2,4.07,4.07,0,0,0,.66.42l.14.31-.18.28a1.23,1.23,0,0,0-.13.36,1.46,1.46,0,0,1-.15.42.8.8,0,0,0-.11.35,4.69,4.69,0,0,1-.07.48q-.06.29-.2,1.27a2.53,2.53,0,0,1-.31,1.13.47.47,0,0,0-.15.39.9.9,0,0,1-.1.46q-.11.22-.36.87a3.41,3.41,0,0,0,.5.06.33.33,0,0,0,.24-.07.22.22,0,0,1,.15-.07.63.63,0,0,0,.22-.06q.53-.84.74-1.23t1-2.3q.84-1.9,1.64-3.42t1.22-2.44l-1-.34h.78c.17,0,.27,0,.29-.06a.28.28,0,0,1,.1-.08A5.47,5.47,0,0,0,424.19,206.89Zm2.37,10.56a1.22,1.22,0,0,1,.55.14l.92.45.11.15a.52.52,0,0,1,.07.27c0,.13-.13.35-.42.66a17.56,17.56,0,0,0-1.3,1.69L425.22,222l0,.08a9.93,9.93,0,0,0,1.23-.06,1.79,1.79,0,0,1,.83.08q.41.14,1.22.36l.06.08a.18.18,0,0,0,.14,0,.62.62,0,0,1,.28.1q.22.11.67.39l.14.34-.31.17-.17.22H429a2.66,2.66,0,0,0-.45.1,3.09,3.09,0,0,1-1.26-.17,8,8,0,0,0-2.27-.21,15.26,15.26,0,0,0-2.73.35,7.68,7.68,0,0,1-2,.25,4,4,0,0,1-.84-.14,4.1,4.1,0,0,1-.46-.2l1.16-.28q.49-.11,3.37-1.2.39-.62.62-.91a3.09,3.09,0,0,0,.39-.7,2.72,2.72,0,0,1,.31-.59.43.43,0,0,0,.11-.34.69.69,0,0,1,.1-.41,3.1,3.1,0,0,0,.22-.71,1.31,1.31,0,0,0,.06-.55.28.28,0,0,1,0-.2l-.34,0-.73.64a4.08,4.08,0,0,1-.22.57,1.3,1.3,0,0,0-.13.36.41.41,0,0,0,0,.29l.17.28-.25.22a.27.27,0,0,1-.25.06,1.28,1.28,0,0,0-.32,0,.78.78,0,0,1-.42-.14q-.27-.15-.94-.46a.4.4,0,0,1,0-.21c0-.07,0-.14-.1-.24a1.71,1.71,0,0,1-.27-.53l-.28-.14h.38a.82.82,0,0,1,.38.1l.81.34.74-.57q.27-.21.67-.49a1.73,1.73,0,0,1,.73-.32,4.23,4.23,0,0,0,.85-.24A5,5,0,0,0,426.55,217.44Zm-2-2.56a1,1,0,0,1,.38.06l.73.27a.11.11,0,0,1,0,.08.3.3,0,0,0,0,.17.2.2,0,0,1-.07.18,1.06,1.06,0,0,0-.18.15,11.27,11.27,0,0,1-1.5.45,2.42,2.42,0,0,0-.81.29,3.62,3.62,0,0,1-1.06.36,2.61,2.61,0,0,1-1,.08,4.2,4.2,0,0,1-.69-.24l.21-.08a5.15,5.15,0,0,0,.7-.43,10.63,10.63,0,0,1,1.57-.84,6.75,6.75,0,0,1,1.13-.45.71.71,0,0,0,.22,0Zm-1.86-3.3a4,4,0,0,1,.85.35q.77.36,1.88,1a21.29,21.29,0,0,0,2.66,1.25,11,11,0,0,0,2.56.74,13.19,13.19,0,0,1,1.55.27,3.87,3.87,0,0,1,.7.22l.35.22a.77.77,0,0,1,.06.5H433a.9.9,0,0,0-.24.06,6.46,6.46,0,0,1-1.13.08,8.6,8.6,0,0,1-1.64-.08,9.22,9.22,0,0,1-1.36-.34,4.66,4.66,0,0,1-1.32-.69,12,12,0,0,0-1.26-.81,5.68,5.68,0,0,1-1.15-.84,5.09,5.09,0,0,0-1-.74,14,14,0,0,1-1.32-.9l-.22.08,0-.25.08-.11Z" transform="translate(-90.15 -48.52)"/></svg>